<svg xmlns="http://www.w3.org/2000/svg" viewBox="0 0 800 1130" preserveAspectRatio="xMidYMid slice">
<defs>
<path id="c1_0" d="M 570.0 472.7 L 565.4 474.0 L 564.0 475.8 L 562.7 480.0 L 558.0 482.9 L 553.0 486.0 L 552.0 488.2 L 549.5 492.0 L 551.6 498.0 L 547.7 504.0 L 546.3 510.0 L 550.0 516.0 L 550.1 522.0 L 552.0 527.2 L 553.2 528.0 L 558.0 530.5 L 564.0 534.0 L 564.0 534.0 L 570.0 538.6 L 572.8 540.0 L 576.0 541.9 L 577.7 540.0 L 582.0 536.0 L 588.0 535.6 L 590.4 534.0 L 591.3 528.0 L 594.0 526.0 L 597.5 522.0 L 600.0 516.5 L 600.2 516.0 L 603.2 510.0 L 605.7 504.0 L 605.9 498.0 L 602.7 492.0 L 602.2 486.0 L 600.0 484.6 L 594.0 481.4 L 588.0 480.2 L 587.6 480.0 L 584.9 474.0 L 582.0 472.6 L 576.0 472.3 L 570.0 472.7"/>
<path id="c1_1" d="M 120.0 995.1 L 118.7 996.0 L 114.0 999.7 L 108.0 998.4 L 104.5 1002.0 L 102.0 1004.3 L 96.5 1008.0 L 96.0 1008.5 L 90.4 1014.0 L 90.7 1020.0 L 90.0 1021.2 L 87.4 1026.0 L 88.5 1032.0 L 86.4 1038.0 L 86.8 1044.0 L 84.0 1049.1 L 83.5 1050.0 L 84.0 1051.0 L 86.7 1056.0 L 87.3 1062.0 L 88.2 1068.0 L 87.2 1074.0 L 89.2 1080.0 L 90.0 1081.4 L 93.6 1086.0 L 96.0 1090.2 L 102.0 1090.8 L 103.2 1092.0 L 108.0 1095.8 L 113.3 1098.0 L 114.0 1098.4 L 116.3 1098.0 L 120.0 1097.6 L 121.1 1098.0 L 126.0 1099.5 L 130.3 1098.0 L 132.0 1097.3 L 138.0 1094.5 L 144.0 1092.1 L 150.0 1086.4 L 150.5 1086.0 L 156.0 1083.4 L 160.3 1080.0 L 162.0 1076.6 L 163.0 1074.0 L 167.6 1068.0 L 167.9 1062.0 L 167.9 1062.0 L 171.8 1056.0 L 174.0 1051.0 L 174.3 1050.0 L 174.0 1046.9 L 173.6 1044.0 L 173.9 1038.0 L 174.0 1037.5 L 175.7 1032.0 L 175.1 1026.0 L 174.9 1020.0 L 174.9 1014.0 L 174.0 1008.9 L 173.4 1008.0 L 168.0 1003.3 L 166.8 1002.0 L 162.0 999.1 L 158.6 996.0 L 156.0 994.6 L 150.0 994.6 L 144.0 992.0 L 138.0 990.8 L 132.0 991.9 L 126.0 996.0 L 120.0 995.1"/>
<path id="c2_0" d="M 360.0 227.2 L 358.9 228.0 L 354.0 232.4 L 351.2 234.0 L 348.0 237.0 L 342.0 237.4 L 340.6 240.0 L 340.3 246.0 L 336.7 252.0 L 336.0 254.3 L 335.2 258.0 L 336.0 259.0 L 339.7 264.0 L 337.0 270.0 L 338.9 276.0 L 338.9 282.0 L 342.0 287.7 L 342.3 288.0 L 342.6 294.0 L 345.4 300.0 L 348.0 302.3 L 349.9 306.0 L 352.9 312.0 L 354.0 314.9 L 360.0 314.6 L 363.6 318.0 L 366.0 319.2 L 372.0 319.5 L 377.9 324.0 L 384.0 321.9 L 390.0 320.5 L 396.0 319.5 L 399.4 318.0 L 402.0 315.9 L 406.0 312.0 L 405.4 306.0 L 408.0 304.2 L 413.8 300.0 L 414.0 299.3 L 415.4 294.0 L 417.0 288.0 L 415.9 282.0 L 419.0 276.0 L 418.9 270.0 L 416.1 264.0 L 416.8 258.0 L 414.0 252.1 L 411.1 246.0 L 408.0 241.9 L 406.5 240.0 L 402.0 234.0 L 396.0 232.6 L 390.0 229.2 L 384.0 230.3 L 381.0 228.0 L 378.0 227.0 L 376.6 228.0 L 372.0 230.3 L 366.0 231.4 L 361.9 228.0 L 360.0 227.2"/>
<path id="c2_4" d="M 486.0 378.0 L 486.0 378.0 L 486.2 378.0 L 480.8 384.0 L 480.0 386.0 L 477.7 390.0 L 474.0 395.7 L 473.8 396.0 L 468.0 401.0 L 467.1 402.0 L 467.2 408.0 L 465.8 414.0 L 466.0 420.0 L 466.8 426.0 L 466.2 432.0 L 468.0 435.5 L 470.9 438.0 L 474.0 443.5 L 474.1 444.0 L 475.6 450.0 L 480.0 455.1 L 480.8 456.0 L 484.3 462.0 L 486.0 464.1 L 489.4 468.0 L 492.0 470.5 L 498.0 472.9 L 499.9 474.0 L 504.0 478.4 L 504.8 480.0 L 508.0 486.0 L 508.0 492.0 L 510.0 494.6 L 512.6 498.0 L 513.3 504.0 L 516.0 509.3 L 516.2 510.0 L 518.1 516.0 L 521.7 522.0 L 522.0 522.8 L 523.3 528.0 L 522.9 534.0 L 525.0 540.0 L 526.9 546.0 L 528.0 549.6 L 530.3 552.0 L 534.0 554.2 L 536.2 558.0 L 540.0 561.4 L 543.7 564.0 L 546.0 566.8 L 552.0 567.6 L 558.0 568.2 L 564.0 568.4 L 570.0 568.6 L 576.0 567.0 L 582.0 566.2 L 588.0 564.9 L 589.1 564.0 L 594.0 561.4 L 600.0 558.9 L 600.9 558.0 L 606.0 552.6 L 606.6 552.0 L 612.0 546.3 L 612.2 546.0 L 613.6 540.0 L 618.0 536.1 L 619.7 534.0 L 621.9 528.0 L 624.0 524.1 L 624.9 522.0 L 627.1 516.0 L 627.5 510.0 L 629.8 504.0 L 630.0 502.9 L 630.5 498.0 L 632.1 492.0 L 630.0 486.0 L 631.0 480.0 L 632.2 474.0 L 630.0 468.6 L 629.7 468.0 L 627.4 462.0 L 624.0 457.4 L 623.1 456.0 L 622.5 450.0 L 618.0 447.4 L 612.0 446.1 L 606.0 444.3 L 605.7 444.0 L 603.6 438.0 L 600.0 437.2 L 596.5 438.0 L 594.0 439.0 L 592.2 438.0 L 588.0 436.1 L 582.2 432.0 L 576.0 431.4 L 570.0 427.5 L 564.0 426.0 L 558.2 420.0 L 554.0 414.0 L 552.0 411.6 L 547.2 408.0 L 546.0 406.9 L 543.0 402.0 L 540.5 396.0 L 540.0 393.5 L 534.0 390.8 L 533.4 390.0 L 528.0 386.3 L 522.0 384.4 L 521.5 384.0 L 519.1 378.0 L 516.0 377.1 L 513.3 378.0 L 510.0 381.1 L 507.6 378.0 L 504.0 375.4 L 498.0 374.8 L 493.2 378.0 L 492.0 378.8 L 486.2 378.0"/>
<path id="c2_8" d="M 42.0 921.2 L 38.7 924.0 L 36.0 926.9 L 32.2 930.0 L 30.0 931.5 L 26.2 936.0 L 24.0 939.1 L 22.3 942.0 L 23.4 948.0 L 21.8 954.0 L 24.0 958.9 L 24.5 960.0 L 26.0 966.0 L 28.5 972.0 L 30.0 973.4 L 34.9 978.0 L 36.0 979.6 L 39.5 984.0 L 42.0 986.3 L 44.2 990.0 L 46.4 996.0 L 48.0 1000.7 L 48.4 1002.0 L 50.4 1008.0 L 53.3 1014.0 L 54.0 1018.7 L 54.9 1020.0 L 60.0 1025.0 L 60.1 1026.0 L 60.4 1032.0 L 60.0 1034.0 L 59.2 1038.0 L 60.0 1042.4 L 60.4 1044.0 L 61.5 1050.0 L 63.4 1056.0 L 63.0 1062.0 L 64.7 1068.0 L 66.0 1071.9 L 66.8 1074.0 L 66.0 1080.0 L 66.0 1081.9 L 66.0 1086.0 L 66.0 1086.1 L 69.4 1092.0 L 70.0 1098.0 L 72.0 1102.6 L 73.9 1104.0 L 78.0 1108.4 L 78.8 1110.0 L 84.0 1114.9 L 85.5 1116.0 L 90.0 1118.0 L 95.5 1122.0 L 96.0 1122.4 L 102.0 1122.2 L 102.6 1122.0 L 108.0 1120.7 L 111.2 1122.0 L 114.0 1122.9 L 117.1 1122.0 L 120.0 1121.2 L 126.0 1121.3 L 132.0 1120.0 L 138.0 1118.4 L 144.0 1116.6 L 150.0 1116.4 L 150.4 1116.0 L 156.0 1111.6 L 158.4 1110.0 L 162.0 1106.8 L 166.2 1104.0 L 168.0 1101.7 L 172.1 1098.0 L 174.0 1094.5 L 175.1 1092.0 L 180.0 1088.5 L 181.5 1086.0 L 183.7 1080.0 L 185.0 1074.0 L 186.0 1071.1 L 187.6 1068.0 L 189.6 1062.0 L 191.9 1056.0 L 191.9 1056.0 L 194.0 1050.0 L 194.1 1044.0 L 197.0 1038.0 L 196.8 1032.0 L 198.0 1028.6 L 199.1 1026.0 L 198.6 1020.0 L 199.1 1014.0 L 200.9 1008.0 L 202.4 1002.0 L 201.5 996.0 L 202.4 990.0 L 204.0 985.7 L 204.7 984.0 L 204.2 978.0 L 204.0 977.3 L 202.7 972.0 L 204.0 966.5 L 204.1 966.0 L 198.0 963.0 L 195.0 960.0 L 192.0 956.1 L 186.0 959.5 L 185.4 960.0 L 180.0 961.4 L 177.5 960.0 L 174.0 958.3 L 168.0 959.0 L 165.9 960.0 L 162.0 961.1 L 156.0 961.2 L 150.0 960.1 L 144.0 960.8 L 138.0 961.3 L 134.3 960.0 L 132.0 959.1 L 129.4 960.0 L 126.0 962.2 L 120.0 961.6 L 114.0 960.4 L 111.6 960.0 L 108.0 958.9 L 102.2 954.0 L 96.0 952.4 L 90.0 950.5 L 86.9 948.0 L 86.2 942.0 L 84.0 939.3 L 78.0 938.0 L 72.0 937.9 L 71.0 936.0 L 72.0 934.1 L 73.6 930.0 L 72.0 927.4 L 66.0 927.1 L 60.0 926.4 L 54.0 926.1 L 51.8 924.0 L 48.0 921.1 L 42.0 921.2"/>
<path id="c3_0" d="M 330.0 155.9 L 328.5 156.0 L 324.0 157.7 L 318.0 159.7 L 312.0 160.7 L 306.0 161.2 L 304.1 162.0 L 300.0 166.4 L 297.5 168.0 L 294.0 170.1 L 290.7 174.0 L 288.0 176.8 L 286.3 180.0 L 284.1 186.0 L 282.2 192.0 L 282.0 192.4 L 279.1 198.0 L 280.4 204.0 L 278.6 210.0 L 281.1 216.0 L 279.2 222.0 L 282.0 225.8 L 284.6 228.0 L 288.0 232.2 L 288.7 234.0 L 290.0 240.0 L 293.1 246.0 L 294.0 250.4 L 294.5 252.0 L 300.0 257.0 L 300.7 258.0 L 301.9 264.0 L 306.0 268.6 L 306.8 270.0 L 307.0 276.0 L 310.7 282.0 L 312.0 283.4 L 313.7 288.0 L 314.3 294.0 L 316.0 300.0 L 318.0 305.4 L 318.3 306.0 L 320.9 312.0 L 324.0 317.2 L 324.3 318.0 L 326.8 324.0 L 329.6 330.0 L 330.0 330.7 L 334.2 336.0 L 336.0 338.2 L 342.0 340.3 L 344.3 342.0 L 348.0 344.6 L 353.9 348.0 L 354.0 348.1 L 354.8 348.0 L 360.0 347.4 L 361.5 348.0 L 366.0 350.8 L 372.0 351.4 L 378.0 353.5 L 384.0 351.2 L 389.1 354.0 L 390.0 354.5 L 391.0 354.0 L 396.0 352.1 L 401.4 354.0 L 402.0 354.4 L 408.0 354.8 L 409.8 354.0 L 414.0 351.8 L 420.0 351.1 L 425.4 354.0 L 426.0 354.4 L 428.1 354.0 L 431.8 348.0 L 432.0 346.2 L 438.0 346.8 L 442.2 342.0 L 444.0 339.5 L 450.0 336.1 L 446.3 330.0 L 444.0 325.4 L 443.4 324.0 L 441.6 318.0 L 444.0 315.0 L 446.4 312.0 L 444.0 309.4 L 441.9 306.0 L 443.8 300.0 L 442.8 294.0 L 444.0 291.3 L 445.6 288.0 L 444.0 283.8 L 443.5 282.0 L 444.0 277.6 L 444.2 276.0 L 446.0 270.0 L 446.0 264.0 L 448.4 258.0 L 447.4 252.0 L 450.0 246.2 L 450.0 240.6 L 450.0 240.0 L 449.6 234.0 L 450.0 232.5 L 451.6 228.0 L 450.1 222.0 L 450.6 216.0 L 450.0 214.9 L 447.0 210.0 L 444.0 205.7 L 442.3 204.0 L 438.0 200.5 L 432.9 198.0 L 432.0 197.1 L 426.0 194.8 L 420.0 196.4 L 416.1 192.0 L 414.0 191.0 L 408.0 189.9 L 403.4 192.0 L 402.0 192.5 L 401.3 192.0 L 396.0 187.5 L 390.0 190.2 L 385.8 186.0 L 384.0 185.0 L 378.0 185.1 L 372.0 184.9 L 369.3 180.0 L 366.0 174.0 L 364.2 174.0 L 360.0 174.0 L 354.0 168.6 L 353.7 168.0 L 348.0 162.6 L 347.6 162.0 L 342.0 160.2 L 336.4 162.0 L 336.0 162.3 L 330.3 156.0 L 330.0 155.9"/>
<path id="c3_6" d="M 454.3 342.0 L 456.0 341.1 L 457.1 342.0 L 462.0 345.7 L 468.0 344.7 L 474.0 343.5 L 480.0 344.6 L 486.0 344.4 L 492.0 344.8 L 498.0 345.4 L 504.0 344.9 L 509.2 342.0 L 510.0 341.6 L 516.0 340.7 L 519.3 342.0 L 522.0 343.2 L 528.0 343.0 L 534.0 345.4 L 538.1 342.0 L 540.0 341.4 L 545.8 342.0 L 546.0 342.2 L 549.4 348.0 L 552.0 349.6 L 556.4 354.0 L 558.0 355.4 L 564.0 356.2 L 567.0 360.0 L 570.0 364.4 L 570.8 366.0 L 576.0 370.7 L 577.5 372.0 L 577.6 378.0 L 582.0 383.4 L 582.6 384.0 L 585.7 390.0 L 588.0 393.3 L 594.0 393.8 L 599.4 396.0 L 600.0 396.5 L 606.0 400.2 L 609.3 402.0 L 612.0 403.3 L 613.6 402.0 L 618.0 399.4 L 621.7 402.0 L 624.0 403.4 L 629.8 402.0 L 629.8 402.0 L 636.0 400.4 L 639.9 402.0 L 642.0 403.2 L 648.0 402.4 L 649.3 402.0 L 649.5 396.0 L 654.0 394.1 L 658.9 390.0 L 660.0 389.3 L 664.1 384.0 L 666.0 379.9 L 672.0 378.4 L 676.5 384.0 L 672.0 388.6 L 668.7 390.0 L 672.0 391.6 L 673.0 390.0 L 678.0 385.0 L 683.5 390.0 L 680.5 396.0 L 678.0 400.1 L 674.7 402.0 L 672.0 406.4 L 671.4 408.0 L 672.0 410.4 L 672.5 414.0 L 672.0 416.7 L 666.0 414.5 L 664.7 420.0 L 665.1 426.0 L 666.0 431.8 L 666.0 432.0 L 661.9 438.0 L 660.0 441.6 L 659.0 444.0 L 660.0 447.3 L 660.9 450.0 L 660.0 455.9 L 660.0 456.0 L 657.6 462.0 L 656.8 468.0 L 655.1 474.0 L 654.0 476.3 L 652.3 480.0 L 651.2 486.0 L 649.7 492.0 L 648.0 497.4 L 647.8 498.0 L 646.4 504.0 L 646.5 510.0 L 643.1 516.0 L 642.0 521.3 L 641.9 522.0 L 640.5 528.0 L 638.5 534.0 L 636.4 540.0 L 636.0 541.0 L 632.0 546.0 L 630.0 548.6 L 628.4 552.0 L 625.3 558.0 L 624.0 559.6 L 621.6 564.0 L 618.0 567.7 L 615.4 570.0 L 612.0 573.1 L 606.8 576.0 L 606.0 576.5 L 600.0 579.3 L 596.8 582.0 L 594.0 583.5 L 588.0 586.4 L 582.0 588.0 L 576.0 587.9 L 575.7 588.0 L 570.0 589.5 L 564.0 591.7 L 558.0 590.8 L 552.0 593.5 L 546.0 591.4 L 540.0 592.9 L 534.0 588.0 L 528.0 588.4 L 527.3 588.0 L 523.7 582.0 L 522.0 581.0 L 516.0 576.8 L 515.5 576.0 L 512.1 570.0 L 510.0 567.3 L 508.0 564.0 L 508.4 558.0 L 504.0 552.5 L 503.7 552.0 L 504.0 549.6 L 504.4 546.0 L 504.0 543.6 L 502.9 540.0 L 500.2 534.0 L 498.0 530.7 L 495.4 528.0 L 494.2 522.0 L 492.0 518.6 L 490.1 516.0 L 487.3 510.0 L 486.0 508.5 L 482.7 504.0 L 480.0 500.5 L 478.7 498.0 L 474.0 493.6 L 470.9 492.0 L 468.0 489.5 L 464.9 486.0 L 462.0 482.9 L 460.7 480.0 L 457.1 474.0 L 456.0 471.8 L 452.6 468.0 L 450.0 464.3 L 449.1 462.0 L 447.1 456.0 L 444.5 450.0 L 444.0 446.1 L 443.6 444.0 L 442.1 438.0 L 442.2 432.0 L 439.2 426.0 L 440.1 420.0 L 438.0 415.6 L 437.2 414.0 L 438.0 409.8 L 438.4 408.0 L 439.1 402.0 L 438.6 396.0 L 438.0 393.9 L 436.7 390.0 L 435.6 384.0 L 434.8 378.0 L 438.0 374.3 L 440.0 372.0 L 439.2 366.0 L 438.0 363.4 L 432.0 362.0 L 430.4 360.0 L 432.0 355.6 L 434.5 354.0 L 438.0 352.0 L 440.1 354.0 L 444.0 356.9 L 445.6 354.0 L 444.0 351.8 L 440.3 348.0 L 444.0 345.1 L 450.0 345.8 L 454.3 342.0"/>
<path id="c3_7" d="M 678.0 359.3 L 677.7 360.0 L 672.0 366.0 L 672.0 366.0 L 672.0 366.0 L 676.2 372.0 L 672.6 378.0 L 678.0 382.1 L 679.8 384.0 L 684.0 389.0 L 686.2 384.0 L 690.0 381.0 L 695.1 378.0 L 693.9 372.0 L 690.0 368.4 L 684.0 368.0 L 680.8 366.0 L 678.6 360.0 L 678.0 359.3"/>
<path id="c3_8" d="M 690.0 359.1 L 688.7 360.0 L 690.0 361.8 L 691.4 360.0 L 690.0 359.1"/>
<path id="c3_9" d="M 692.7 366.0 L 696.0 363.2 L 698.4 366.0 L 696.0 369.6 L 692.7 366.0"/>
<path id="c3_10" d="M 695.0 384.0 L 696.0 380.9 L 696.8 384.0 L 696.0 384.5 L 695.0 384.0"/>
<path id="c3_12" d="M 159.0 1134.0 L 162.0 1133.6 L 168.0 1130.9 L 170.1 1128.0 L 174.0 1125.9 L 180.0 1124.2 L 183.9 1122.0 L 186.0 1120.1 L 188.3 1116.0 L 192.0 1111.8 L 193.7 1110.0 L 196.9 1104.0 L 197.0 1098.0 L 198.0 1094.7 L 199.3 1092.0 L 203.5 1086.0 L 204.0 1084.9 L 205.7 1080.0 L 206.4 1074.0 L 207.2 1068.0 L 208.4 1062.0 L 209.0 1056.0 L 210.0 1050.9 L 210.2 1050.0 L 213.2 1044.0 L 213.8 1038.0 L 215.6 1032.0 L 216.0 1029.2 L 216.9 1026.0 L 218.8 1020.0 L 220.4 1014.0 L 222.0 1011.1 L 223.3 1008.0 L 224.8 1002.0 L 226.6 996.0 L 228.0 992.7 L 230.0 990.0 L 231.8 984.0 L 234.0 980.8 L 235.5 978.0 L 240.0 973.8 L 241.4 972.0 L 244.1 966.0 L 246.0 964.0 L 249.0 960.0 L 252.0 955.7 L 255.2 954.0 L 258.0 951.6 L 261.1 948.0 L 263.9 942.0 L 264.0 941.9 L 270.0 936.7 L 270.4 936.0 L 272.0 930.0 L 276.0 926.9 L 278.4 924.0 L 279.2 918.0 L 281.6 912.0 L 282.0 911.5 L 286.1 906.0 L 285.8 900.0 L 287.8 894.0 L 288.0 893.3 L 288.7 888.0 L 288.0 886.4 L 285.8 882.0 L 282.0 876.0 L 282.0 875.9 L 281.4 870.0 L 278.2 864.0 L 276.0 861.8 L 270.0 860.1 L 264.0 860.0 L 261.1 858.0 L 258.0 856.3 L 252.0 856.1 L 246.0 856.9 L 240.0 855.9 L 238.1 858.0 L 234.0 862.0 L 229.5 864.0 L 228.0 864.4 L 222.0 864.6 L 216.0 868.6 L 210.6 870.0 L 210.0 873.8 L 209.9 876.0 L 204.0 881.3 L 202.8 882.0 L 198.0 885.7 L 196.9 888.0 L 196.3 894.0 L 192.0 897.9 L 187.8 900.0 L 186.0 901.9 L 183.5 906.0 L 180.0 909.8 L 176.0 912.0 L 175.6 918.0 L 174.0 919.2 L 168.0 918.7 L 162.0 921.0 L 156.0 922.0 L 152.5 924.0 L 150.0 925.3 L 144.0 924.1 L 138.0 919.7 L 132.0 923.0 L 126.8 918.0 L 126.0 914.8 L 124.3 912.0 L 120.0 909.3 L 114.0 908.4 L 111.6 906.0 L 108.0 901.9 L 102.0 900.4 L 101.4 900.0 L 96.0 894.5 L 95.4 894.0 L 90.0 889.6 L 84.6 888.0 L 84.2 882.0 L 83.7 882.0 L 78.0 883.5 L 72.0 884.7 L 66.0 884.1 L 62.4 882.0 L 60.0 881.0 L 54.0 881.8 L 48.0 881.6 L 42.0 880.4 L 39.3 882.0 L 36.0 883.3 L 30.0 883.3 L 24.0 884.5 L 18.0 886.6 L 13.8 888.0 L 12.0 888.6 L 8.0 888.0 L 6.0 886.9 L 0.0 887.7"/>
<path id="c3_15" d="M 0.0 983.9 L 0.0 984.0 L 4.3 990.0 L 5.5 996.0 L 6.0 996.9 L 9.3 1002.0 L 12.0 1004.3 L 15.6 1008.0 L 18.0 1010.5 L 22.0 1014.0 L 24.0 1017.0 L 25.9 1020.0 L 29.4 1026.0 L 30.0 1029.6 L 31.0 1032.0 L 35.8 1038.0 L 36.0 1039.1 L 36.8 1044.0 L 38.2 1050.0 L 40.9 1056.0 L 42.0 1060.0 L 42.7 1062.0 L 44.9 1068.0 L 46.2 1074.0 L 45.7 1080.0 L 46.1 1086.0 L 48.0 1091.2 L 48.4 1092.0 L 49.2 1098.0 L 50.5 1104.0 L 50.3 1110.0 L 52.3 1116.0 L 52.2 1122.0 L 54.0 1124.2 L 58.8 1128.0 L 60.0 1129.5 L 61.8 1134.0"/>
<path id="c4_0" d="M 438.0 35.1 L 435.3 36.0 L 432.0 37.6 L 426.0 40.3 L 420.0 38.6 L 415.3 42.0 L 420.0 47.7 L 420.0 48.0 L 414.0 48.8 L 409.6 54.0 L 408.0 56.0 L 405.8 60.0 L 403.9 66.0 L 402.7 72.0 L 402.0 72.9 L 396.0 75.3 L 394.0 78.0 L 393.2 84.0 L 391.1 90.0 L 390.0 93.7 L 387.8 96.0 L 384.0 97.3 L 381.1 102.0 L 378.0 104.3 L 372.0 106.4 L 370.5 108.0 L 366.0 111.0 L 361.9 114.0 L 360.0 115.2 L 354.0 118.1 L 348.0 118.0 L 344.1 120.0 L 342.0 120.9 L 336.0 121.4 L 330.0 125.3 L 324.0 125.2 L 321.6 126.0 L 318.0 127.8 L 312.7 132.0 L 312.0 132.4 L 306.0 135.2 L 301.1 138.0 L 300.0 138.7 L 294.0 142.6 L 291.9 144.0 L 288.0 146.1 L 285.2 150.0 L 282.0 152.7 L 279.1 156.0 L 276.0 158.8 L 273.1 162.0 L 270.0 166.2 L 268.8 168.0 L 266.5 174.0 L 264.0 177.6 L 262.2 180.0 L 260.0 186.0 L 258.1 192.0 L 258.8 198.0 L 258.0 201.2 L 257.2 204.0 L 256.0 210.0 L 256.5 216.0 L 258.0 220.9 L 258.4 222.0 L 258.0 225.4 L 257.5 228.0 L 258.0 230.0 L 258.7 234.0 L 260.1 240.0 L 262.8 246.0 L 264.0 247.5 L 267.6 252.0 L 269.1 258.0 L 270.0 259.5 L 272.5 264.0 L 276.0 267.8 L 277.7 270.0 L 282.0 275.8 L 282.2 276.0 L 285.0 282.0 L 286.8 288.0 L 288.0 289.8 L 291.0 294.0 L 294.0 299.4 L 294.3 300.0 L 296.1 306.0 L 299.5 312.0 L 300.0 315.9 L 300.2 318.0 L 302.0 324.0 L 303.2 330.0 L 306.0 334.9 L 306.7 336.0 L 310.1 342.0 L 312.0 343.8 L 314.2 348.0 L 318.0 352.7 L 319.5 354.0 L 322.9 360.0 L 324.0 360.7 L 330.0 364.1 L 336.0 365.8 L 340.8 366.0 L 342.0 366.0 L 348.0 369.1 L 353.0 372.0 L 354.0 372.5 L 360.0 373.4 L 366.0 375.0 L 372.0 375.3 L 378.0 375.9 L 381.4 378.0 L 384.0 380.4 L 390.0 381.8 L 396.0 381.7 L 398.2 384.0 L 402.0 387.9 L 405.3 390.0 L 408.0 393.0 L 410.0 396.0 L 412.7 402.0 L 414.0 406.4 L 414.4 408.0 L 414.0 412.6 L 413.9 414.0 L 414.0 414.2 L 417.8 420.0 L 418.7 426.0 L 419.7 432.0 L 419.4 438.0 L 420.0 439.8 L 421.7 444.0 L 422.1 450.0 L 423.0 456.0 L 425.6 462.0 L 426.0 465.1 L 426.6 468.0 L 430.8 474.0 L 431.0 480.0 L 432.0 481.9 L 436.0 486.0 L 438.0 489.0 L 439.5 492.0 L 444.0 497.3 L 445.1 498.0 L 449.1 504.0 L 450.0 504.9 L 454.2 510.0 L 456.0 511.7 L 459.0 516.0 L 462.0 519.6 L 466.9 522.0 L 466.8 528.0 L 468.0 529.4 L 472.7 534.0 L 474.0 535.6 L 476.2 540.0 L 477.5 546.0 L 480.0 552.0 L 480.0 552.0 L 479.3 558.0 L 480.0 558.8 L 483.3 564.0 L 485.6 570.0 L 485.1 576.0 L 484.9 582.0 L 486.0 583.7 L 490.5 588.0 L 488.7 594.0 L 488.9 600.0 L 492.0 604.3 L 493.0 606.0 L 498.0 610.8 L 500.0 612.0 L 504.0 616.3 L 510.0 614.0 L 516.0 615.4 L 522.0 615.3 L 528.0 614.8 L 534.0 614.3 L 540.0 614.1 L 546.0 612.5 L 552.0 612.7 L 553.3 612.0 L 558.0 610.2 L 564.0 610.6 L 570.0 607.6 L 576.0 606.7 L 577.4 606.0 L 582.0 604.2 L 588.0 602.6 L 594.0 602.0 L 597.4 600.0 L 600.0 599.1 L 606.0 596.9 L 612.0 595.1 L 613.6 594.0 L 618.0 591.0 L 621.7 588.0 L 624.0 586.2 L 630.0 582.1 L 634.4 576.0 L 636.0 573.1 L 639.8 570.0 L 642.0 568.0 L 644.4 564.0 L 646.4 558.0 L 648.0 553.7 L 648.6 552.0 L 651.4 546.0 L 654.0 540.6 L 654.2 540.0 L 654.0 535.2 L 653.9 534.0 L 653.9 534.0 L 657.5 528.0 L 658.1 522.0 L 659.7 516.0 L 660.0 514.6 L 660.9 510.0 L 662.9 504.0 L 666.0 498.2 L 667.7 492.0 L 668.6 486.0 L 670.5 480.0 L 672.0 476.6 L 673.7 474.0 L 676.3 468.0 L 678.0 465.1 L 679.2 462.0 L 682.2 456.0 L 683.2 450.0 L 684.0 448.7 L 687.3 444.0 L 690.0 439.1 L 691.0 438.0 L 694.8 432.0 L 696.0 429.6 L 699.3 426.0 L 702.0 422.8 L 703.9 420.0 L 708.0 416.3 L 710.2 414.0 L 714.0 410.6 L 717.4 408.0 L 720.0 404.5 L 721.8 402.0 L 723.6 396.0 L 726.0 392.4 L 727.2 390.0 L 730.1 384.0 L 732.0 380.4 L 733.8 378.0 L 735.5 372.0 L 738.0 369.1 L 739.4 366.0 L 739.3 360.0 L 740.9 354.0 L 741.7 348.0 L 740.5 342.0 L 739.5 336.0 L 739.0 330.0 L 738.0 327.5 L 732.0 324.8 L 731.0 324.0 L 726.0 318.2 L 722.5 312.0 L 720.0 310.9 L 714.0 306.0 L 713.7 306.0 L 714.0 306.0 L 708.0 306.9 L 706.4 306.0 L 702.0 303.5 L 698.8 300.0 L 696.0 297.6 L 690.0 299.5 L 687.6 294.0 L 684.1 288.0 L 683.2 288.0 L 678.0 288.6 L 677.5 288.0 L 675.0 282.0 L 672.0 278.5 L 667.8 276.0 L 666.0 274.1 L 663.6 270.0 L 663.2 264.0 L 660.0 258.5 L 658.1 258.0 L 655.4 252.0 L 654.0 249.9 L 648.0 247.9 L 646.0 246.0 L 645.0 240.0 L 642.0 239.2 L 636.0 239.3 L 630.0 237.7 L 624.0 238.5 L 618.0 236.4 L 612.0 239.0 L 606.0 238.2 L 604.9 240.0 L 600.0 242.9 L 594.0 245.5 L 591.6 246.0 L 590.7 252.0 L 588.0 253.1 L 582.0 257.1 L 581.4 258.0 L 576.7 264.0 L 577.4 270.0 L 576.0 271.1 L 570.0 274.7 L 568.9 276.0 L 565.7 282.0 L 564.0 287.7 L 558.0 286.3 L 556.1 288.0 L 552.0 292.1 L 550.7 294.0 L 546.0 298.1 L 543.4 300.0 L 540.0 302.7 L 535.7 306.0 L 534.0 307.7 L 528.0 306.3 L 525.9 306.0 L 522.0 305.3 L 521.3 306.0 L 516.0 310.4 L 510.0 308.5 L 505.1 312.0 L 504.0 312.4 L 502.9 312.0 L 498.0 309.8 L 492.0 310.1 L 487.0 306.0 L 486.0 302.1 L 485.3 300.0 L 480.0 296.2 L 478.2 294.0 L 478.8 288.0 L 474.1 282.0 L 474.0 281.7 L 473.1 276.0 L 472.4 270.0 L 472.2 264.0 L 474.0 259.2 L 474.6 258.0 L 478.0 252.0 L 477.0 246.0 L 479.9 240.0 L 479.9 240.0 L 483.5 234.0 L 484.1 228.0 L 485.1 222.0 L 486.0 221.2 L 492.0 218.6 L 493.9 216.0 L 498.0 211.6 L 501.2 210.0 L 501.6 204.0 L 504.0 202.0 L 507.6 198.0 L 510.0 195.7 L 516.0 192.6 L 516.3 192.0 L 519.0 186.0 L 522.0 182.6 L 527.8 180.0 L 528.0 178.7 L 528.4 174.0 L 531.6 168.0 L 534.0 165.6 L 537.3 162.0 L 538.7 156.0 L 540.0 152.2 L 540.3 150.0 L 542.9 144.0 L 542.5 138.0 L 543.4 132.0 L 540.0 126.4 L 539.8 126.0 L 540.0 125.3 L 541.3 120.0 L 540.0 115.4 L 539.1 114.0 L 538.4 108.0 L 534.0 104.3 L 532.6 102.0 L 531.5 96.0 L 528.0 91.3 L 524.5 90.0 L 522.0 89.6 L 516.0 86.5 L 510.0 84.3 L 509.0 84.0 L 504.0 81.6 L 500.9 78.0 L 498.0 75.0 L 492.0 77.0 L 486.0 72.9 L 484.8 72.0 L 482.1 66.0 L 480.0 64.9 L 476.6 66.0 L 474.0 66.7 L 472.8 66.0 L 468.0 62.4 L 465.7 60.0 L 462.0 56.1 L 459.7 54.0 L 456.0 50.2 L 454.3 48.0 L 450.0 44.2 L 447.3 42.0 L 444.0 36.8 L 442.5 36.0 L 438.0 35.1"/>
<path id="c4_7" d="M 216.4 1134.0 L 218.8 1128.0 L 220.8 1122.0 L 222.0 1117.8 L 222.3 1116.0 L 222.0 1114.5 L 221.0 1110.0 L 221.3 1104.0 L 222.0 1102.3 L 223.4 1098.0 L 224.2 1092.0 L 223.9 1086.0 L 226.1 1080.0 L 224.4 1074.0 L 226.6 1068.0 L 227.4 1062.0 L 227.9 1056.0 L 228.0 1052.6 L 228.1 1050.0 L 232.4 1044.0 L 232.6 1038.0 L 234.0 1034.5 L 235.0 1032.0 L 234.7 1026.0 L 239.7 1020.0 L 240.0 1019.6 L 242.2 1014.0 L 243.8 1008.0 L 245.8 1002.0 L 246.0 1001.7 L 251.2 996.0 L 252.0 993.4 L 254.3 990.0 L 256.9 984.0 L 258.0 982.7 L 264.0 978.7 L 264.9 978.0 L 270.0 972.4 L 270.3 972.0 L 273.3 966.0 L 276.0 962.9 L 279.5 960.0 L 281.2 954.0 L 282.0 953.2 L 287.2 948.0 L 288.0 946.3 L 290.0 942.0 L 294.0 937.0 L 294.7 936.0 L 297.8 930.0 L 300.0 926.7 L 301.3 924.0 L 303.9 918.0 L 305.3 912.0 L 306.0 909.1 L 306.7 906.0 L 308.5 900.0 L 308.7 894.0 L 310.2 888.0 L 310.3 882.0 L 309.2 876.0 L 308.1 870.0 L 307.3 864.0 L 306.0 861.3 L 304.8 858.0 L 303.3 852.0 L 300.0 848.2 L 298.6 846.0 L 295.3 840.0 L 294.0 839.3 L 288.0 836.7 L 284.7 834.0 L 282.0 832.2 L 276.0 830.1 L 272.4 828.0 L 270.0 826.9 L 264.0 827.5 L 258.0 825.6 L 252.0 824.6 L 246.8 822.0 L 246.0 821.3 L 243.2 822.0 L 240.0 822.4 L 239.0 822.0 L 234.0 817.6 L 232.0 816.0 L 228.0 814.5 L 222.2 810.0 L 222.0 809.8 L 219.9 810.0 L 216.0 811.1 L 215.6 810.0 L 210.0 804.3 L 209.6 804.0 L 206.8 798.0 L 204.0 794.7 L 198.0 793.1 L 197.1 792.0 L 193.6 786.0 L 192.0 784.7 L 187.7 780.0 L 186.0 779.4 L 180.0 775.1 L 174.0 775.8 L 171.8 774.0 L 168.0 772.5 L 162.0 773.6 L 161.3 774.0 L 156.0 777.1 L 152.4 780.0 L 150.0 782.8 L 144.0 781.1 L 141.3 786.0 L 139.9 792.0 L 138.0 794.9 L 132.0 795.1 L 130.3 798.0 L 127.5 804.0 L 126.0 806.5 L 120.5 810.0 L 120.0 810.4 L 117.3 816.0 L 114.0 821.1 L 112.5 822.0 L 110.0 828.0 L 108.0 829.5 L 103.2 834.0 L 102.0 835.1 L 96.0 838.4 L 90.0 838.0 L 87.7 840.0 L 84.0 842.6 L 78.0 841.9 L 72.0 844.4 L 66.0 844.5 L 63.5 846.0 L 60.0 848.2 L 55.7 846.0 L 54.0 844.7 L 52.7 846.0 L 48.0 849.4 L 42.8 846.0 L 42.0 845.1 L 39.6 846.0 L 36.0 846.7 L 32.8 846.0 L 30.0 844.9 L 24.0 840.5 L 23.7 840.0 L 24.0 838.6 L 25.2 834.0 L 24.0 832.8 L 19.6 828.0 L 18.0 825.5 L 16.3 822.0 L 17.7 816.0 L 15.4 810.0 L 15.1 804.0 L 18.0 798.5 L 18.2 798.0 L 18.6 792.0 L 18.0 788.6 L 17.4 786.0 L 17.5 780.0 L 18.0 779.2 L 21.1 774.0 L 24.0 769.8 L 25.5 768.0 L 25.0 762.0 L 27.6 756.0 L 30.0 751.5 L 30.8 750.0 L 36.0 745.9 L 37.7 744.0 L 42.0 740.0 L 45.4 738.0 L 45.5 732.0 L 48.0 729.8 L 54.0 726.5 L 54.7 726.0 L 60.0 722.2 L 64.3 720.0 L 66.0 717.8 L 67.4 714.0 L 72.0 708.6 L 72.6 708.0 L 77.0 702.0 L 78.0 699.6 L 80.3 696.0 L 84.0 690.0 L 84.0 689.9 L 81.0 684.0 L 82.5 678.0 L 84.0 674.6 L 85.8 672.0 L 84.0 667.4 L 83.6 666.0 L 82.4 660.0 L 81.8 654.0 L 82.9 648.0 L 80.7 642.0 L 78.0 639.9 L 72.0 637.7 L 70.3 636.0 L 66.0 631.5 L 64.5 630.0 L 60.0 626.6 L 54.0 627.8 L 48.0 628.4 L 42.0 628.2 L 36.0 628.3 L 30.0 629.2 L 26.0 630.0 L 24.0 631.9 L 22.7 636.0 L 18.0 638.5 L 13.5 642.0 L 12.0 645.7 L 10.6 648.0 L 6.0 650.7 L 2.5 654.0 L 0.0 658.1"/>
<path id="c4_9" d="M 0.0 1032.8 L 4.5 1038.0 L 6.0 1040.2 L 8.7 1044.0 L 12.0 1046.8 L 14.8 1050.0 L 18.0 1054.3 L 19.3 1056.0 L 20.3 1062.0 L 22.9 1068.0 L 23.0 1074.0 L 24.0 1079.5 L 24.1 1080.0 L 26.2 1086.0 L 26.2 1092.0 L 26.6 1098.0 L 26.8 1104.0 L 26.1 1110.0 L 26.8 1116.0 L 26.6 1122.0 L 24.3 1128.0 L 24.0 1129.0 L 22.7 1134.0"/>
<path id="c5_0" d="M 446.4 0.0 L 444.0 0.8 L 438.0 1.2 L 432.0 1.3 L 426.0 2.3 L 420.0 4.3 L 418.3 6.0 L 414.0 8.5 L 409.6 12.0 L 408.0 13.7 L 402.1 18.0 L 397.8 24.0 L 396.0 25.2 L 391.1 30.0 L 390.0 31.1 L 384.4 36.0 L 384.0 39.1 L 383.5 42.0 L 378.0 46.3 L 376.9 48.0 L 374.1 54.0 L 372.0 58.2 L 370.6 60.0 L 366.0 63.5 L 363.7 66.0 L 361.7 72.0 L 360.0 73.7 L 356.2 78.0 L 354.0 80.1 L 348.7 84.0 L 348.0 84.5 L 343.3 90.0 L 342.0 91.2 L 336.0 94.9 L 334.7 96.0 L 330.0 99.0 L 324.0 101.2 L 322.7 102.0 L 318.0 106.3 L 316.3 108.0 L 312.0 110.3 L 306.4 114.0 L 306.0 114.3 L 300.0 117.7 L 294.0 119.9 L 293.8 120.0 L 288.0 125.0 L 286.7 126.0 L 282.0 129.5 L 278.8 132.0 L 276.0 134.0 L 270.0 137.8 L 269.8 138.0 L 265.9 144.0 L 264.0 147.1 L 262.2 150.0 L 258.0 154.0 L 256.5 156.0 L 253.1 162.0 L 252.0 163.6 L 250.0 168.0 L 248.9 174.0 L 246.6 180.0 L 246.0 181.2 L 243.9 186.0 L 242.8 192.0 L 240.8 198.0 L 240.0 202.1 L 239.7 204.0 L 240.0 208.1 L 240.2 210.0 L 240.0 210.8 L 238.7 216.0 L 239.7 222.0 L 240.0 224.0 L 240.7 228.0 L 240.0 230.8 L 239.4 234.0 L 240.0 237.0 L 240.7 240.0 L 242.5 246.0 L 242.5 252.0 L 246.0 257.5 L 246.3 258.0 L 246.0 260.6 L 245.6 264.0 L 246.0 265.1 L 249.0 270.0 L 252.0 273.2 L 253.7 276.0 L 256.1 282.0 L 258.0 284.7 L 260.8 288.0 L 264.0 292.7 L 265.0 294.0 L 268.7 300.0 L 270.0 304.0 L 270.5 306.0 L 272.5 312.0 L 274.2 318.0 L 276.0 320.1 L 279.7 324.0 L 278.6 330.0 L 282.0 334.2 L 282.8 336.0 L 282.7 342.0 L 282.5 348.0 L 288.0 353.8 L 288.1 354.0 L 288.9 360.0 L 288.0 363.5 L 286.7 366.0 L 288.0 367.1 L 292.3 372.0 L 294.0 374.7 L 296.7 378.0 L 300.0 380.6 L 306.0 382.4 L 308.5 384.0 L 312.0 387.4 L 318.0 389.2 L 320.8 390.0 L 324.0 391.0 L 328.2 390.0 L 330.0 389.7 L 334.3 390.0 L 336.0 390.3 L 342.0 393.5 L 348.0 394.5 L 354.0 395.1 L 358.0 396.0 L 360.0 396.4 L 366.0 397.1 L 372.0 399.5 L 374.6 402.0 L 378.0 403.6 L 382.9 408.0 L 384.0 409.1 L 390.0 413.3 L 390.8 414.0 L 392.9 420.0 L 396.0 425.3 L 396.5 426.0 L 398.2 432.0 L 399.1 438.0 L 399.6 444.0 L 401.4 450.0 L 401.9 456.0 L 402.0 456.9 L 402.7 462.0 L 404.8 468.0 L 404.7 474.0 L 406.3 480.0 L 406.1 486.0 L 407.3 492.0 L 408.0 494.6 L 409.6 498.0 L 409.9 504.0 L 414.0 508.2 L 415.7 510.0 L 416.1 516.0 L 420.0 520.9 L 421.4 522.0 L 426.0 526.1 L 428.0 528.0 L 426.4 534.0 L 432.0 539.1 L 438.0 538.5 L 438.9 540.0 L 438.4 546.0 L 444.0 550.4 L 447.0 552.0 L 445.0 558.0 L 446.9 564.0 L 447.3 570.0 L 448.6 576.0 L 449.5 582.0 L 450.0 583.6 L 451.1 588.0 L 450.0 588.9 L 446.2 594.0 L 444.0 596.7 L 438.2 600.0 L 442.2 606.0 L 438.0 609.4 L 432.0 611.1 L 430.6 612.0 L 432.0 615.9 L 432.8 618.0 L 432.0 618.8 L 429.6 618.0 L 426.0 616.8 L 424.3 618.0 L 420.6 624.0 L 420.0 624.6 L 415.7 630.0 L 414.0 632.0 L 408.0 635.2 L 406.9 636.0 L 405.7 642.0 L 404.9 648.0 L 403.8 654.0 L 402.0 656.4 L 397.9 660.0 L 398.0 666.0 L 397.8 672.0 L 396.0 674.3 L 393.4 678.0 L 395.6 684.0 L 396.0 687.0 L 396.4 690.0 L 396.0 691.0 L 393.8 696.0 L 396.0 698.8 L 397.9 702.0 L 396.0 707.9 L 396.0 708.0 L 396.0 708.1 L 402.0 712.3 L 402.9 714.0 L 406.9 720.0 L 408.0 720.9 L 413.1 726.0 L 414.0 726.8 L 415.4 726.0 L 420.0 724.2 L 423.8 726.0 L 426.0 727.1 L 427.9 726.0 L 432.0 720.7 L 438.0 722.0 L 442.3 720.0 L 444.0 718.9 L 450.0 716.3 L 452.2 714.0 L 456.0 710.5 L 457.8 708.0 L 461.5 702.0 L 462.0 701.5 L 466.9 696.0 L 468.0 693.8 L 473.0 690.0 L 474.0 689.4 L 477.7 684.0 L 480.0 681.3 L 482.4 678.0 L 486.0 673.3 L 487.0 672.0 L 492.0 666.7 L 493.1 666.0 L 497.3 660.0 L 498.0 658.1 L 500.3 654.0 L 504.0 651.8 L 508.5 648.0 L 510.0 646.8 L 516.0 645.4 L 522.0 642.9 L 523.6 642.0 L 528.0 638.3 L 534.0 636.8 L 536.4 636.0 L 540.0 634.3 L 546.0 630.9 L 552.0 630.4 L 552.7 630.0 L 558.0 627.4 L 564.0 627.4 L 570.0 624.1 L 576.0 624.4 L 576.7 624.0 L 582.0 622.0 L 588.0 620.5 L 594.0 620.5 L 600.0 619.1 L 605.0 618.0 L 606.0 617.8 L 612.0 615.1 L 618.0 614.8 L 624.0 613.1 L 626.1 612.0 L 630.0 610.0 L 636.0 607.9 L 638.8 606.0 L 642.0 604.2 L 645.3 600.0 L 648.0 597.0 L 654.0 594.5 L 654.5 594.0 L 657.9 588.0 L 660.0 583.1 L 660.5 582.0 L 662.4 576.0 L 663.5 570.0 L 666.0 564.5 L 666.2 564.0 L 666.5 558.0 L 667.3 552.0 L 668.5 546.0 L 670.9 540.0 L 671.3 534.0 L 672.0 532.2 L 673.4 528.0 L 674.9 522.0 L 676.3 516.0 L 678.0 512.1 L 678.7 510.0 L 680.1 504.0 L 682.7 498.0 L 684.0 493.1 L 684.2 492.0 L 686.3 486.0 L 690.0 480.3 L 690.7 474.0 L 694.9 468.0 L 696.0 465.8 L 697.2 462.0 L 702.0 457.6 L 703.7 456.0 L 708.0 450.3 L 711.6 444.0 L 714.0 439.8 L 715.5 438.0 L 719.8 432.0 L 719.8 432.0 L 724.7 426.0 L 726.0 423.6 L 728.9 420.0 L 732.0 417.8 L 735.7 414.0 L 738.0 409.9 L 739.5 408.0 L 744.0 402.1 L 745.3 396.0 L 749.4 390.0 L 750.0 389.2 L 752.8 384.0 L 754.3 378.0 L 756.0 374.7 L 757.3 372.0 L 756.7 366.0 L 759.3 360.0 L 759.7 354.0 L 761.0 348.0 L 760.6 342.0 L 762.0 336.7 L 762.2 336.0 L 762.0 333.9 L 761.4 330.0 L 760.7 324.0 L 759.7 318.0 L 758.2 312.0 L 756.0 308.2 L 752.8 306.0 L 750.2 300.0 L 744.0 294.2 L 738.0 289.2 L 736.0 288.0 L 732.0 284.0 L 729.6 282.0 L 726.0 280.6 L 720.2 276.0 L 714.0 272.6 L 708.0 270.9 L 707.0 270.0 L 702.0 265.7 L 700.1 264.0 L 696.0 258.4 L 695.6 258.0 L 690.2 252.0 L 690.0 251.6 L 687.9 246.0 L 684.0 241.8 L 682.9 240.0 L 680.6 234.0 L 678.0 229.7 L 675.1 228.0 L 672.0 224.9 L 670.2 222.0 L 666.0 218.8 L 661.5 216.0 L 660.0 215.0 L 655.6 210.0 L 654.0 208.8 L 648.0 209.2 L 642.0 205.6 L 638.2 204.0 L 636.0 203.4 L 630.0 202.7 L 624.0 202.3 L 618.0 203.4 L 612.0 201.4 L 606.9 204.0 L 606.0 204.6 L 604.3 204.0 L 600.0 202.8 L 594.0 198.2 L 588.0 200.5 L 582.0 202.0 L 576.0 202.0 L 570.0 199.0 L 569.0 198.0 L 564.9 192.0 L 567.9 186.0 L 566.3 180.0 L 568.0 174.0 L 567.9 168.0 L 567.4 162.0 L 566.3 156.0 L 567.6 150.0 L 566.6 144.0 L 566.5 138.0 L 565.2 132.0 L 566.2 126.0 L 564.6 120.0 L 565.8 114.0 L 564.0 108.2 L 560.8 102.0 L 560.9 96.0 L 558.0 92.1 L 556.0 90.0 L 555.6 84.0 L 552.5 78.0 L 552.0 77.4 L 546.0 72.2 L 545.5 72.0 L 540.7 66.0 L 540.0 65.5 L 534.0 62.4 L 531.3 60.0 L 528.0 57.0 L 523.7 54.0 L 522.0 53.4 L 516.0 52.7 L 510.0 48.3 L 509.6 48.0 L 505.4 42.0 L 504.0 41.0 L 498.7 36.0 L 498.0 35.5 L 492.0 32.6 L 490.6 30.0 L 486.0 25.4 L 484.2 24.0 L 480.2 18.0 L 474.0 14.1 L 471.8 12.0 L 468.0 8.6 L 464.1 6.0 L 462.0 4.1 L 456.0 0.9 L 453.5 0.0"/>
<path id="c5_10" d="M 0.0 580.3 L 4.3 582.0 L 6.0 584.5 L 12.0 584.2 L 18.0 585.6 L 24.0 586.9 L 30.0 587.7 L 30.7 588.0 L 36.0 589.6 L 42.0 590.7 L 48.0 594.0 L 48.0 594.0 L 54.0 595.8 L 60.0 596.2 L 66.0 597.3 L 72.0 598.9 L 74.0 600.0 L 78.0 603.6 L 80.7 606.0 L 84.0 608.0 L 89.0 612.0 L 90.0 612.9 L 96.0 617.9 L 96.3 618.0 L 100.6 624.0 L 102.0 627.9 L 103.9 630.0 L 107.8 636.0 L 106.6 642.0 L 108.0 644.8 L 109.7 648.0 L 109.5 654.0 L 109.9 660.0 L 112.3 666.0 L 111.3 672.0 L 111.6 678.0 L 111.3 684.0 L 109.9 690.0 L 110.9 696.0 L 112.5 702.0 L 108.9 708.0 L 110.2 714.0 L 114.0 719.2 L 114.6 720.0 L 116.6 726.0 L 119.4 732.0 L 114.0 736.7 L 111.6 738.0 L 114.0 742.0 L 120.0 740.5 L 122.8 738.0 L 121.8 732.0 L 126.0 731.1 L 126.8 732.0 L 128.2 738.0 L 132.0 739.4 L 136.5 738.0 L 138.0 736.7 L 144.0 737.4 L 150.0 737.4 L 156.0 735.1 L 162.0 736.7 L 168.0 737.9 L 168.3 738.0 L 174.0 739.6 L 180.0 741.3 L 186.0 740.7 L 190.8 744.0 L 192.0 744.8 L 198.0 747.5 L 203.4 750.0 L 204.0 750.6 L 210.0 754.1 L 212.0 756.0 L 216.0 759.3 L 219.3 762.0 L 221.6 768.0 L 222.0 768.3 L 228.0 773.4 L 229.2 774.0 L 234.0 778.6 L 234.7 780.0 L 238.9 786.0 L 240.0 787.7 L 246.0 790.7 L 248.6 792.0 L 252.0 795.0 L 255.1 798.0 L 258.0 799.5 L 264.0 802.0 L 270.0 801.7 L 273.9 804.0 L 276.0 805.5 L 282.0 804.9 L 288.0 807.7 L 294.0 809.7 L 294.6 810.0 L 300.0 812.4 L 306.0 815.8 L 306.8 816.0 L 310.6 822.0 L 312.0 823.9 L 315.8 828.0 L 318.0 829.6 L 323.0 834.0 L 324.0 840.0 L 323.7 846.0 L 324.0 846.6 L 326.8 852.0 L 326.3 858.0 L 326.7 864.0 L 326.0 870.0 L 326.1 876.0 L 326.8 882.0 L 325.0 888.0 L 324.2 894.0 L 324.0 895.1 L 323.2 900.0 L 323.4 906.0 L 322.2 912.0 L 320.3 918.0 L 318.0 923.7 L 317.8 924.0 L 317.6 930.0 L 314.4 936.0 L 313.8 942.0 L 312.0 944.4 L 308.6 948.0 L 306.0 953.1 L 305.6 954.0 L 302.7 960.0 L 300.0 963.4 L 297.9 966.0 L 294.4 972.0 L 294.0 972.6 L 288.9 978.0 L 288.0 978.8 L 283.3 984.0 L 282.3 990.0 L 282.0 990.4 L 276.6 996.0 L 276.0 997.4 L 271.2 1002.0 L 270.0 1002.8 L 266.2 1008.0 L 264.0 1011.2 L 262.4 1014.0 L 259.2 1020.0 L 258.0 1022.8 L 257.1 1026.0 L 255.4 1032.0 L 253.5 1038.0 L 252.2 1044.0 L 252.0 1044.8 L 250.4 1050.0 L 249.7 1056.0 L 248.8 1062.0 L 247.3 1068.0 L 247.0 1074.0 L 248.9 1080.0 L 247.3 1086.0 L 246.6 1092.0 L 248.4 1098.0 L 246.0 1103.7 L 245.9 1104.0 L 246.0 1104.4 L 248.4 1110.0 L 247.7 1116.0 L 246.8 1122.0 L 247.1 1128.0 L 246.0 1130.4 L 243.7 1134.0"/>
<path id="c5_11" d="M 78.0 773.5 L 77.8 774.0 L 72.0 778.6 L 69.7 780.0 L 66.0 784.5 L 65.4 786.0 L 66.0 786.6 L 67.2 786.0 L 72.0 781.9 L 78.0 782.2 L 84.0 780.6 L 84.5 780.0 L 84.0 777.7 L 78.9 774.0 L 78.0 773.5"/>
<path id="c6_0" d="M 394.8 0.0 L 390.0 2.6 L 387.1 6.0 L 384.0 9.6 L 381.8 12.0 L 378.0 16.0 L 375.9 18.0 L 372.0 23.2 L 371.4 24.0 L 367.7 30.0 L 366.0 32.0 L 364.1 36.0 L 360.4 42.0 L 360.0 42.7 L 355.9 48.0 L 354.0 51.0 L 350.6 54.0 L 348.0 56.2 L 345.7 60.0 L 342.0 63.4 L 339.5 66.0 L 336.0 71.5 L 335.4 72.0 L 330.0 75.2 L 327.3 78.0 L 324.0 82.2 L 318.0 84.0 L 312.7 90.0 L 312.0 90.4 L 306.0 93.7 L 302.7 96.0 L 300.0 98.2 L 294.1 102.0 L 288.0 106.3 L 284.7 108.0 L 282.0 109.6 L 276.0 112.4 L 273.8 114.0 L 270.0 116.9 L 266.4 120.0 L 264.0 122.4 L 259.2 126.0 L 258.0 128.1 L 255.8 132.0 L 252.0 134.6 L 249.1 138.0 L 246.0 142.2 L 245.2 144.0 L 243.4 150.0 L 240.2 156.0 L 240.0 156.7 L 238.3 162.0 L 235.8 168.0 L 234.0 171.2 L 232.4 174.0 L 231.3 180.0 L 229.6 186.0 L 228.0 191.3 L 227.8 192.0 L 228.0 194.6 L 228.3 198.0 L 228.0 199.2 L 226.7 204.0 L 225.7 210.0 L 224.9 216.0 L 224.2 222.0 L 223.2 228.0 L 223.6 234.0 L 224.0 240.0 L 224.3 246.0 L 223.8 252.0 L 224.9 258.0 L 223.4 264.0 L 226.0 270.0 L 228.0 275.2 L 228.3 276.0 L 230.1 282.0 L 232.1 288.0 L 233.1 294.0 L 234.0 295.6 L 237.8 300.0 L 237.9 306.0 L 240.0 308.8 L 242.7 312.0 L 244.3 318.0 L 246.0 319.9 L 249.3 324.0 L 248.2 330.0 L 247.7 336.0 L 250.1 342.0 L 252.0 345.7 L 252.8 348.0 L 253.4 354.0 L 252.0 355.6 L 248.4 360.0 L 249.5 366.0 L 249.9 372.0 L 246.0 374.0 L 243.1 378.0 L 240.0 382.6 L 238.5 384.0 L 234.0 388.4 L 232.5 390.0 L 228.0 393.8 L 225.8 396.0 L 224.3 402.0 L 222.0 403.9 L 216.4 408.0 L 216.8 414.0 L 216.0 414.5 L 211.4 420.0 L 210.0 421.4 L 204.2 426.0 L 204.0 428.1 L 203.6 432.0 L 198.0 436.8 L 196.8 438.0 L 196.4 444.0 L 197.1 450.0 L 195.5 456.0 L 195.8 462.0 L 197.1 468.0 L 198.0 470.0 L 199.2 474.0 L 198.6 480.0 L 201.9 486.0 L 204.0 489.6 L 206.5 492.0 L 210.0 495.0 L 216.0 492.9 L 222.0 497.0 L 228.0 495.6 L 234.0 495.2 L 240.0 493.9 L 241.8 492.0 L 246.0 489.3 L 251.5 486.0 L 252.0 485.4 L 258.0 480.7 L 258.9 480.0 L 264.0 474.8 L 264.9 474.0 L 265.6 468.0 L 270.0 462.5 L 270.4 462.0 L 276.0 456.6 L 276.7 456.0 L 282.0 450.2 L 287.7 444.0 L 287.7 444.0 L 291.5 438.0 L 294.0 433.5 L 300.0 433.5 L 302.7 432.0 L 305.4 426.0 L 306.0 425.6 L 312.0 424.7 L 318.0 421.9 L 324.0 421.8 L 330.0 420.0 L 336.0 418.1 L 340.1 420.0 L 342.0 421.3 L 348.0 421.2 L 354.0 421.3 L 360.0 421.9 L 363.5 426.0 L 366.0 429.3 L 368.6 432.0 L 371.0 438.0 L 372.0 439.0 L 377.8 444.0 L 378.0 444.5 L 379.3 450.0 L 380.3 456.0 L 379.5 462.0 L 381.4 468.0 L 381.0 474.0 L 381.4 480.0 L 378.2 486.0 L 378.0 487.1 L 377.4 492.0 L 374.9 498.0 L 375.6 504.0 L 372.0 508.5 L 370.4 510.0 L 371.0 516.0 L 366.0 520.3 L 363.2 522.0 L 360.0 525.6 L 358.1 528.0 L 354.0 530.8 L 350.2 534.0 L 348.0 536.1 L 346.2 540.0 L 343.3 546.0 L 342.0 548.8 L 336.0 551.4 L 335.4 552.0 L 331.6 558.0 L 331.6 564.0 L 330.0 567.5 L 327.7 570.0 L 324.0 573.7 L 321.8 576.0 L 324.0 580.2 L 325.1 582.0 L 324.0 582.8 L 320.7 588.0 L 323.9 594.0 L 321.3 600.0 L 322.9 606.0 L 321.3 612.0 L 324.0 614.4 L 327.2 618.0 L 327.0 624.0 L 328.9 630.0 L 330.0 630.5 L 336.0 635.7 L 336.0 636.0 L 342.0 641.5 L 342.6 642.0 L 348.0 645.9 L 349.8 648.0 L 354.0 653.7 L 354.3 654.0 L 356.2 660.0 L 357.7 666.0 L 357.5 672.0 L 360.0 674.7 L 363.6 678.0 L 362.3 684.0 L 362.9 690.0 L 366.0 695.9 L 366.1 696.0 L 366.0 696.4 L 364.1 702.0 L 366.0 707.2 L 366.3 708.0 L 366.0 709.1 L 365.1 714.0 L 366.0 716.4 L 368.2 720.0 L 367.1 726.0 L 369.4 732.0 L 367.5 738.0 L 368.9 744.0 L 372.0 749.7 L 372.6 750.0 L 374.4 756.0 L 378.0 758.7 L 382.8 756.0 L 384.0 755.2 L 384.9 756.0 L 390.0 758.8 L 396.0 757.4 L 402.0 760.8 L 408.0 757.7 L 414.0 756.1 L 414.7 756.0 L 420.0 755.0 L 426.0 753.0 L 432.0 752.1 L 435.2 750.0 L 438.0 748.1 L 444.0 745.5 L 446.1 744.0 L 450.0 740.6 L 456.0 738.7 L 456.7 738.0 L 462.0 732.4 L 462.6 732.0 L 468.0 726.8 L 469.3 726.0 L 474.0 720.5 L 474.3 720.0 L 480.0 715.3 L 481.5 714.0 L 486.0 709.3 L 486.8 708.0 L 490.4 702.0 L 492.0 700.1 L 495.4 696.0 L 498.0 692.6 L 500.7 690.0 L 503.8 684.0 L 503.8 684.0 L 510.0 678.2 L 513.8 672.0 L 516.0 670.7 L 522.0 666.9 L 523.2 666.0 L 528.0 661.1 L 530.0 660.0 L 534.0 658.3 L 540.0 655.1 L 542.9 654.0 L 546.0 651.1 L 552.0 649.0 L 554.0 648.0 L 558.0 646.4 L 564.0 645.0 L 570.0 643.1 L 572.2 642.0 L 576.0 640.4 L 582.0 640.6 L 588.0 639.3 L 594.0 638.1 L 600.0 638.5 L 606.0 637.5 L 612.0 636.3 L 618.0 638.6 L 624.0 636.9 L 630.0 636.4 L 636.0 636.7 L 642.0 637.2 L 648.0 636.1 L 654.0 634.6 L 660.0 630.3 L 666.0 630.2 L 670.6 624.0 L 672.0 621.1 L 678.0 618.4 L 678.2 618.0 L 680.6 612.0 L 683.0 606.0 L 684.0 605.3 L 686.2 600.0 L 686.3 594.0 L 686.5 588.0 L 685.8 582.0 L 685.7 576.0 L 685.6 570.0 L 688.0 564.0 L 689.2 558.0 L 687.0 552.0 L 687.9 546.0 L 688.6 540.0 L 690.0 535.5 L 690.5 534.0 L 692.2 528.0 L 693.4 522.0 L 692.9 516.0 L 695.7 510.0 L 696.0 509.2 L 698.1 504.0 L 699.3 498.0 L 701.1 492.0 L 702.0 490.2 L 704.3 486.0 L 708.0 480.7 L 708.6 480.0 L 711.2 474.0 L 714.0 470.1 L 715.7 468.0 L 719.4 462.0 L 720.0 461.0 L 723.2 456.0 L 726.0 451.2 L 726.8 450.0 L 732.0 445.9 L 734.0 444.0 L 738.0 438.1 L 743.3 432.0 L 744.0 431.0 L 748.7 426.0 L 750.0 424.0 L 751.3 420.0 L 756.0 414.5 L 756.4 414.0 L 758.1 408.0 L 761.3 402.0 L 762.0 400.5 L 763.9 396.0 L 767.3 390.0 L 768.0 388.3 L 769.7 384.0 L 771.4 378.0 L 771.9 372.0 L 774.0 367.2 L 774.5 366.0 L 775.5 360.0 L 776.1 354.0 L 776.8 348.0 L 777.3 342.0 L 777.7 336.0 L 778.8 330.0 L 777.6 324.0 L 777.3 318.0 L 777.0 312.0 L 777.2 306.0 L 777.6 300.0 L 775.5 294.0 L 774.0 290.0 L 772.8 288.0 L 768.0 282.9 L 766.5 282.0 L 762.0 276.8 L 761.6 276.0 L 757.5 270.0 L 756.0 267.7 L 750.0 264.3 L 749.7 264.0 L 744.0 262.0 L 739.4 258.0 L 738.0 256.8 L 732.0 253.8 L 727.4 252.0 L 726.0 251.5 L 721.3 246.0 L 720.0 243.8 L 714.0 240.7 L 713.3 240.0 L 712.0 234.0 L 708.0 230.4 L 705.0 228.0 L 702.4 222.0 L 702.0 221.6 L 696.4 216.0 L 696.0 215.2 L 693.6 210.0 L 690.0 205.8 L 688.8 204.0 L 684.3 198.0 L 684.0 197.8 L 678.0 195.7 L 674.7 192.0 L 672.0 189.9 L 666.0 187.6 L 660.0 186.7 L 658.8 186.0 L 654.0 183.7 L 648.0 181.6 L 643.7 180.0 L 642.0 179.6 L 640.3 180.0 L 636.0 180.9 L 634.1 180.0 L 630.0 176.7 L 624.0 175.0 L 621.5 174.0 L 618.0 173.6 L 612.0 171.5 L 606.0 168.3 L 600.0 163.5 L 598.6 162.0 L 594.0 156.9 L 593.3 156.0 L 594.0 151.4 L 594.3 150.0 L 594.0 149.6 L 590.9 144.0 L 588.0 138.8 L 587.6 138.0 L 587.8 132.0 L 585.6 126.0 L 586.6 120.0 L 584.1 114.0 L 582.5 108.0 L 583.6 102.0 L 583.2 96.0 L 582.4 90.0 L 582.0 88.4 L 580.4 84.0 L 576.0 78.2 L 576.0 77.5 L 576.7 72.0 L 576.0 71.0 L 571.8 66.0 L 570.0 63.0 L 567.3 60.0 L 565.5 54.0 L 564.0 51.9 L 558.0 48.6 L 557.2 48.0 L 552.0 43.1 L 550.9 42.0 L 546.0 38.5 L 541.8 36.0 L 540.0 35.0 L 534.0 32.5 L 532.7 30.0 L 528.0 26.7 L 524.4 24.0 L 522.0 22.0 L 516.2 18.0 L 510.0 14.2 L 508.4 12.0 L 504.0 7.3 L 501.6 6.0 L 498.0 1.7 L 497.3 0.0"/>
<path id="c6_1" d="M 798.7 0.0 L 798.0 0.9 L 794.1 6.0 L 792.0 8.2 L 789.1 12.0 L 786.0 15.4 L 783.7 18.0 L 781.3 24.0 L 780.0 25.3 L 775.6 30.0 L 774.0 31.9 L 772.0 36.0 L 771.7 42.0 L 771.6 48.0 L 770.9 54.0 L 768.0 59.5 L 767.8 60.0 L 766.7 66.0 L 766.0 72.0 L 768.0 74.8 L 770.6 78.0 L 769.0 84.0 L 771.9 90.0 L 774.0 95.9 L 776.3 96.0 L 780.0 96.4 L 781.3 102.0 L 786.0 106.0 L 788.5 108.0 L 792.0 113.1 L 793.1 114.0 L 798.0 115.6 L 804.0 120.0 L 804.0 120.1"/>
<path id="c6_10" d="M 0.0 539.2 L 2.8 540.0 L 6.0 542.6 L 10.7 546.0 L 12.0 546.6 L 18.0 546.5 L 22.7 552.0 L 24.0 552.8 L 30.0 554.5 L 36.0 557.0 L 37.2 558.0 L 42.0 561.3 L 46.2 564.0 L 48.0 565.3 L 54.0 567.0 L 56.7 570.0 L 60.0 570.9 L 66.0 571.5 L 72.0 574.8 L 78.0 574.3 L 80.9 576.0 L 84.0 578.6 L 89.1 582.0 L 90.0 582.3 L 96.0 583.3 L 102.0 586.1 L 104.6 588.0 L 108.0 594.0 L 108.1 594.0 L 114.0 599.1 L 114.4 600.0 L 117.0 606.0 L 120.0 608.5 L 122.6 612.0 L 125.0 618.0 L 124.6 624.0 L 125.3 630.0 L 126.0 631.6 L 128.2 636.0 L 128.2 642.0 L 128.8 648.0 L 131.1 654.0 L 130.7 660.0 L 132.0 665.6 L 132.2 666.0 L 132.9 672.0 L 136.2 678.0 L 138.0 682.1 L 138.9 684.0 L 141.3 690.0 L 144.0 694.3 L 145.4 696.0 L 150.0 700.9 L 150.8 702.0 L 156.0 707.6 L 156.9 708.0 L 162.0 709.5 L 168.0 711.7 L 174.0 713.3 L 180.0 713.3 L 181.6 714.0 L 186.0 716.0 L 192.0 716.4 L 198.0 716.6 L 203.0 720.0 L 204.0 720.9 L 210.0 725.0 L 216.0 724.6 L 219.2 726.0 L 222.0 729.8 L 223.5 732.0 L 228.0 734.6 L 230.9 738.0 L 234.0 740.8 L 238.1 744.0 L 240.0 746.4 L 242.5 750.0 L 246.0 753.9 L 247.8 756.0 L 252.0 760.0 L 255.3 762.0 L 258.0 764.2 L 260.8 768.0 L 264.0 770.6 L 268.3 774.0 L 270.0 775.3 L 276.0 777.8 L 280.9 780.0 L 282.0 780.3 L 288.0 782.0 L 294.0 783.5 L 300.0 783.4 L 303.0 786.0 L 306.0 788.0 L 312.0 788.9 L 318.0 789.6 L 324.0 790.3 L 326.1 792.0 L 330.0 795.3 L 335.2 798.0 L 336.0 798.5 L 342.0 804.0 L 340.7 810.0 L 342.0 812.8 L 343.1 816.0 L 344.6 822.0 L 343.6 828.0 L 343.6 834.0 L 344.8 840.0 L 343.0 846.0 L 344.3 852.0 L 344.2 858.0 L 344.0 864.0 L 343.0 870.0 L 342.8 876.0 L 342.0 878.7 L 341.0 882.0 L 342.0 888.0 L 340.9 894.0 L 340.7 900.0 L 339.2 906.0 L 337.6 912.0 L 337.3 918.0 L 337.2 924.0 L 336.0 927.6 L 334.9 930.0 L 333.8 936.0 L 333.6 942.0 L 332.5 948.0 L 330.0 952.1 L 329.1 954.0 L 329.2 960.0 L 325.8 966.0 L 324.0 968.0 L 322.3 972.0 L 322.2 978.0 L 318.2 984.0 L 318.0 984.5 L 314.6 990.0 L 312.0 992.1 L 307.1 996.0 L 306.0 1001.6 L 305.9 1002.0 L 300.0 1004.9 L 297.1 1008.0 L 294.0 1013.7 L 293.8 1014.0 L 290.9 1020.0 L 288.0 1021.6 L 285.7 1026.0 L 285.3 1032.0 L 282.0 1035.1 L 280.0 1038.0 L 278.8 1044.0 L 276.0 1046.7 L 274.6 1050.0 L 274.6 1056.0 L 274.1 1062.0 L 273.5 1068.0 L 272.9 1074.0 L 271.6 1080.0 L 272.0 1086.0 L 270.0 1091.8 L 269.9 1092.0 L 270.0 1092.3 L 271.6 1098.0 L 270.0 1102.6 L 269.5 1104.0 L 270.0 1107.3 L 270.5 1110.0 L 270.0 1112.4 L 269.4 1116.0 L 268.9 1122.0 L 267.6 1128.0 L 267.3 1134.0"/>
<path id="c7_0" d="M 371.2 0.0 L 366.8 6.0 L 366.0 6.9 L 360.0 11.9 L 359.9 12.0 L 355.7 18.0 L 354.0 21.1 L 352.4 24.0 L 349.9 30.0 L 348.0 32.6 L 345.1 36.0 L 342.0 40.0 L 339.4 42.0 L 336.0 44.6 L 333.1 48.0 L 330.3 54.0 L 330.0 54.4 L 324.6 60.0 L 324.0 60.6 L 318.0 64.3 L 315.5 66.0 L 312.0 68.4 L 307.5 72.0 L 306.0 73.3 L 301.6 78.0 L 300.0 79.5 L 294.0 81.9 L 289.3 84.0 L 288.0 84.7 L 282.1 90.0 L 276.0 92.9 L 272.0 96.0 L 270.0 97.9 L 264.0 100.6 L 262.3 102.0 L 258.0 106.4 L 252.0 107.9 L 251.9 108.0 L 246.5 114.0 L 246.0 114.4 L 242.1 120.0 L 240.0 123.4 L 237.2 126.0 L 234.0 130.4 L 233.5 132.0 L 231.5 138.0 L 228.9 144.0 L 228.0 145.5 L 225.4 150.0 L 223.1 156.0 L 222.0 160.5 L 221.7 162.0 L 220.3 168.0 L 219.1 174.0 L 218.4 180.0 L 216.6 186.0 L 216.7 192.0 L 216.0 196.9 L 215.8 198.0 L 213.6 204.0 L 213.2 210.0 L 212.2 216.0 L 211.1 222.0 L 210.6 228.0 L 210.0 230.0 L 209.0 234.0 L 208.0 240.0 L 208.3 246.0 L 206.4 252.0 L 206.5 258.0 L 206.1 264.0 L 204.0 269.4 L 203.8 270.0 L 204.0 274.8 L 204.1 276.0 L 204.0 276.4 L 202.9 282.0 L 200.1 288.0 L 200.7 294.0 L 199.9 300.0 L 198.4 306.0 L 198.1 312.0 L 192.0 316.1 L 191.2 318.0 L 189.0 324.0 L 186.0 328.6 L 184.1 330.0 L 180.0 332.4 L 177.1 336.0 L 174.0 339.6 L 171.7 342.0 L 169.3 348.0 L 168.0 349.4 L 162.0 349.1 L 160.3 354.0 L 156.0 358.9 L 155.4 360.0 L 156.0 362.6 L 157.0 366.0 L 156.0 367.9 L 151.6 372.0 L 152.7 378.0 L 150.0 381.7 L 148.6 384.0 L 149.5 390.0 L 148.8 396.0 L 150.0 399.3 L 151.2 402.0 L 150.7 408.0 L 150.6 414.0 L 156.0 419.5 L 156.3 420.0 L 156.0 422.7 L 155.1 426.0 L 156.0 426.9 L 158.9 432.0 L 157.2 438.0 L 159.4 444.0 L 160.0 450.0 L 161.0 456.0 L 161.1 462.0 L 162.0 463.5 L 163.3 468.0 L 162.0 470.6 L 160.8 474.0 L 162.0 477.2 L 163.8 480.0 L 163.4 486.0 L 164.2 492.0 L 165.6 498.0 L 167.9 504.0 L 168.0 504.2 L 170.1 510.0 L 168.0 515.5 L 167.8 516.0 L 168.0 516.3 L 171.7 522.0 L 174.0 524.3 L 180.0 527.7 L 186.0 527.2 L 187.1 528.0 L 192.0 533.6 L 196.6 534.0 L 198.0 534.1 L 198.4 534.0 L 204.0 532.5 L 210.0 530.8 L 216.0 531.2 L 222.0 531.4 L 228.0 529.4 L 234.0 531.4 L 240.0 529.0 L 243.6 528.0 L 246.0 526.5 L 252.0 524.3 L 258.0 523.0 L 264.0 522.9 L 270.0 527.2 L 272.9 522.0 L 276.0 519.4 L 280.3 516.0 L 282.0 513.6 L 287.2 510.0 L 288.0 509.8 L 288.4 510.0 L 294.0 513.7 L 297.8 510.0 L 300.0 507.5 L 302.6 510.0 L 300.0 512.1 L 296.2 516.0 L 296.3 522.0 L 294.0 527.8 L 288.0 523.8 L 285.8 528.0 L 288.0 534.0 L 288.0 534.0 L 294.0 534.3 L 296.5 540.0 L 294.0 545.3 L 293.3 546.0 L 293.3 552.0 L 289.6 558.0 L 291.6 564.0 L 288.0 569.4 L 287.6 570.0 L 288.0 571.3 L 289.4 576.0 L 291.2 582.0 L 289.9 588.0 L 289.7 594.0 L 288.0 597.2 L 286.7 600.0 L 288.0 603.9 L 288.8 606.0 L 289.6 612.0 L 288.3 618.0 L 288.9 624.0 L 288.8 630.0 L 291.2 636.0 L 292.1 642.0 L 294.0 644.2 L 298.1 648.0 L 300.0 652.4 L 300.7 654.0 L 302.8 660.0 L 306.0 662.6 L 308.1 666.0 L 311.0 672.0 L 312.0 674.2 L 318.0 674.8 L 319.7 678.0 L 323.3 684.0 L 323.2 690.0 L 323.8 696.0 L 324.0 696.4 L 327.6 702.0 L 329.3 708.0 L 330.0 710.6 L 331.2 714.0 L 330.0 716.4 L 329.1 720.0 L 327.9 726.0 L 330.0 729.7 L 330.5 732.0 L 330.0 733.7 L 327.5 738.0 L 324.0 740.2 L 318.0 743.2 L 317.0 744.0 L 315.3 750.0 L 312.0 752.1 L 307.3 750.0 L 306.0 749.4 L 305.1 750.0 L 300.0 753.8 L 297.0 750.0 L 294.0 745.6 L 288.0 746.0 L 282.0 744.9 L 280.9 744.0 L 276.7 738.0 L 276.0 737.4 L 270.0 735.9 L 266.9 732.0 L 264.0 728.3 L 261.5 726.0 L 258.5 720.0 L 258.0 719.3 L 252.0 715.8 L 251.5 714.0 L 246.0 710.6 L 240.4 708.0 L 240.0 707.6 L 234.3 702.0 L 234.0 701.8 L 228.0 701.0 L 222.0 699.3 L 216.0 697.3 L 210.0 696.8 L 204.0 696.0 L 198.0 693.7 L 192.0 691.3 L 186.0 690.5 L 183.4 690.0 L 180.0 689.3 L 175.2 684.0 L 174.0 683.4 L 168.0 681.4 L 163.4 678.0 L 162.0 676.6 L 158.0 672.0 L 157.6 666.0 L 156.0 664.2 L 153.9 660.0 L 150.0 654.0 L 150.0 653.5 L 150.2 648.0 L 150.0 647.1 L 148.8 642.0 L 146.8 636.0 L 147.0 630.0 L 145.5 624.0 L 146.3 618.0 L 146.4 612.0 L 145.1 606.0 L 144.8 600.0 L 144.0 598.1 L 142.4 594.0 L 139.7 588.0 L 138.0 582.2 L 136.9 576.0 L 136.5 570.0 L 132.0 565.8 L 126.0 565.9 L 124.3 564.0 L 120.0 559.5 L 114.0 561.8 L 108.0 559.6 L 105.3 558.0 L 102.0 555.8 L 96.0 554.6 L 90.0 553.9 L 85.9 552.0 L 84.0 551.1 L 78.0 550.2 L 72.7 546.0 L 72.0 545.6 L 66.0 544.2 L 60.0 543.5 L 56.9 540.0 L 54.0 536.5 L 49.2 534.0 L 48.0 533.6 L 42.0 531.3 L 38.3 528.0 L 36.0 526.5 L 30.0 522.4 L 29.3 522.0 L 24.0 519.1 L 18.0 517.1 L 12.0 517.6 L 6.0 517.9 L 0.0 516.8"/>
<path id="c7_1" d="M 539.9 0.0 L 540.0 0.1 L 546.0 3.3 L 552.0 4.5 L 553.8 6.0 L 558.0 9.6 L 564.0 9.9 L 570.0 11.1 L 576.0 11.7 L 577.7 12.0 L 580.8 18.0 L 582.0 20.8 L 583.8 24.0 L 588.0 28.6 L 591.1 24.0 L 594.0 18.0 L 588.0 15.7 L 583.7 18.0 L 588.0 20.9 L 594.0 18.0 L 598.3 24.0 L 596.1 30.0 L 600.0 35.0 L 600.2 36.0 L 600.0 36.4 L 596.9 42.0 L 600.0 47.7 L 600.4 48.0 L 600.0 49.8 L 599.5 54.0 L 600.0 56.3 L 600.6 60.0 L 600.9 66.0 L 600.4 72.0 L 601.5 78.0 L 602.4 84.0 L 601.0 90.0 L 602.6 96.0 L 602.1 102.0 L 603.9 108.0 L 605.9 114.0 L 606.0 116.8 L 606.2 120.0 L 606.4 126.0 L 610.8 132.0 L 612.0 134.7 L 614.0 138.0 L 618.0 142.2 L 620.3 144.0 L 624.0 149.5 L 630.0 150.0 L 630.0 150.0 L 636.0 156.0 L 636.0 156.0 L 642.0 156.9 L 648.0 158.1 L 654.0 161.5 L 660.0 161.6 L 660.8 162.0 L 666.0 163.4 L 672.0 164.2 L 678.0 165.3 L 684.0 164.8 L 690.0 164.1 L 694.6 168.0 L 696.0 168.9 L 702.0 170.3 L 706.3 174.0 L 708.0 176.5 L 709.5 180.0 L 713.1 186.0 L 714.0 187.3 L 717.6 192.0 L 720.0 193.6 L 722.5 198.0 L 724.2 204.0 L 726.0 208.4 L 727.2 210.0 L 731.3 216.0 L 732.0 216.4 L 738.0 219.1 L 743.1 222.0 L 744.0 223.1 L 750.0 228.0 L 750.0 228.0 L 756.0 231.2 L 761.4 234.0 L 762.0 234.4 L 767.7 240.0 L 768.0 240.3 L 768.8 240.0 L 774.0 236.8 L 780.0 240.0 L 780.3 240.0 L 786.0 241.3 L 789.1 246.0 L 792.0 250.3 L 798.0 251.1 L 798.6 252.0 L 798.0 253.1 L 795.2 258.0 L 798.0 262.0 L 799.1 264.0 L 798.0 266.1 L 795.0 270.0 L 796.4 276.0 L 796.9 282.0 L 796.3 288.0 L 797.9 294.0 L 797.0 300.0 L 795.8 306.0 L 795.4 312.0 L 794.0 318.0 L 793.2 324.0 L 792.4 330.0 L 792.8 336.0 L 792.0 338.4 L 790.8 342.0 L 790.4 348.0 L 790.1 354.0 L 788.1 360.0 L 788.2 366.0 L 786.3 372.0 L 786.0 373.1 L 785.0 378.0 L 783.8 384.0 L 782.9 390.0 L 781.1 396.0 L 780.2 402.0 L 780.0 402.8 L 777.1 408.0 L 775.2 414.0 L 774.0 415.8 L 771.3 420.0 L 770.3 426.0 L 768.0 429.0 L 765.5 432.0 L 762.0 436.4 L 760.8 438.0 L 756.7 444.0 L 756.0 445.4 L 754.2 450.0 L 750.0 454.3 L 748.7 456.0 L 744.2 462.0 L 739.6 468.0 L 738.0 469.5 L 734.1 474.0 L 732.0 477.1 L 729.3 480.0 L 726.5 486.0 L 726.0 487.9 L 724.2 492.0 L 721.3 498.0 L 720.0 502.3 L 719.3 504.0 L 716.5 510.0 L 714.0 514.1 L 713.5 516.0 L 713.5 522.0 L 712.0 528.0 L 711.0 534.0 L 711.8 540.0 L 708.9 546.0 L 710.6 552.0 L 712.0 558.0 L 710.6 564.0 L 711.0 570.0 L 712.6 576.0 L 713.0 582.0 L 711.8 588.0 L 712.8 594.0 L 711.3 600.0 L 711.9 606.0 L 709.6 612.0 L 708.8 618.0 L 708.0 619.7 L 705.6 624.0 L 706.5 630.0 L 702.9 636.0 L 702.0 637.1 L 696.0 641.9 L 695.9 642.0 L 692.2 648.0 L 690.0 650.9 L 686.3 654.0 L 684.0 656.4 L 678.0 658.2 L 676.4 660.0 L 672.0 662.9 L 666.0 664.3 L 660.0 664.6 L 654.0 664.4 L 648.7 666.0 L 648.0 666.1 L 647.4 666.0 L 642.0 664.4 L 636.0 665.7 L 630.0 662.8 L 624.0 663.6 L 618.0 660.5 L 612.0 660.1 L 606.0 661.4 L 601.6 660.0 L 600.0 659.2 L 597.9 660.0 L 594.0 660.8 L 590.8 660.0 L 588.0 659.0 L 582.3 660.0 L 582.0 660.0 L 576.0 660.3 L 570.0 662.4 L 564.0 663.7 L 558.0 665.9 L 557.9 666.0 L 552.0 669.3 L 546.0 671.6 L 545.4 672.0 L 540.0 677.5 L 539.0 678.0 L 534.0 682.4 L 531.9 684.0 L 528.0 686.8 L 526.6 690.0 L 522.0 694.4 L 519.9 696.0 L 516.5 702.0 L 516.0 702.7 L 510.0 707.6 L 509.7 708.0 L 504.5 714.0 L 504.0 715.2 L 500.5 720.0 L 498.0 725.7 L 497.9 726.0 L 493.6 732.0 L 492.0 733.7 L 486.0 737.0 L 485.2 738.0 L 480.0 742.4 L 478.5 744.0 L 474.0 748.5 L 471.4 750.0 L 468.0 753.7 L 462.3 756.0 L 462.0 756.1 L 456.0 760.4 L 453.2 762.0 L 450.0 763.8 L 444.0 767.3 L 440.7 768.0 L 438.0 768.6 L 432.0 771.4 L 428.3 774.0 L 426.0 775.8 L 420.0 778.4 L 415.7 780.0 L 414.0 780.5 L 408.0 782.7 L 402.0 786.0 L 402.0 786.0 L 396.0 789.1 L 390.1 792.0 L 385.1 798.0 L 384.0 799.0 L 378.3 804.0 L 378.0 804.5 L 372.0 809.2 L 371.6 810.0 L 369.6 816.0 L 369.5 822.0 L 366.0 826.0 L 364.9 828.0 L 365.5 834.0 L 362.9 840.0 L 360.7 846.0 L 360.6 852.0 L 360.0 853.3 L 358.3 858.0 L 358.6 864.0 L 357.3 870.0 L 357.1 876.0 L 355.0 882.0 L 355.5 888.0 L 354.2 894.0 L 355.1 900.0 L 354.0 904.0 L 353.5 906.0 L 353.5 912.0 L 353.9 918.0 L 354.0 919.4 L 354.5 924.0 L 354.3 930.0 L 354.0 936.0 L 354.9 942.0 L 354.0 946.7 L 353.7 948.0 L 353.5 954.0 L 352.5 960.0 L 352.2 966.0 L 350.5 972.0 L 350.3 978.0 L 349.9 984.0 L 348.0 987.6 L 346.1 990.0 L 345.9 996.0 L 344.8 1002.0 L 342.0 1006.8 L 340.8 1008.0 L 338.2 1014.0 L 336.0 1016.0 L 330.0 1019.7 L 329.7 1020.0 L 327.5 1026.0 L 324.0 1031.3 L 322.9 1032.0 L 318.0 1035.5 L 316.2 1038.0 L 314.3 1044.0 L 312.5 1050.0 L 312.0 1050.7 L 306.0 1054.7 L 305.4 1056.0 L 306.0 1059.8 L 306.5 1062.0 L 306.0 1062.4 L 300.0 1067.6 L 299.9 1068.0 L 299.8 1074.0 L 299.0 1080.0 L 294.7 1086.0 L 294.0 1090.5 L 293.7 1092.0 L 294.0 1093.7 L 294.5 1098.0 L 294.0 1099.4 L 291.7 1104.0 L 289.6 1110.0 L 289.5 1116.0 L 288.0 1119.5 L 287.2 1122.0 L 285.8 1128.0 L 285.0 1134.0"/>
<path id="c7_2" d="M 621.1 0.0 L 624.0 0.6 L 630.0 5.2 L 636.0 4.8 L 641.3 6.0 L 642.0 6.2 L 648.0 2.8 L 654.0 3.6 L 660.0 0.7 L 666.0 1.4 L 672.0 1.2 L 678.0 0.4 L 680.1 0.0"/>
<path id="c7_5" d="M 804.0 196.0 L 802.6 192.0 L 799.0 186.0 L 798.0 184.2 L 796.0 180.0 L 792.2 174.0 L 792.0 173.4 L 790.0 168.0 L 788.2 162.0 L 786.0 159.9 L 782.1 156.0 L 780.0 152.4 L 774.0 151.5 L 773.2 150.0 L 768.0 145.1 L 762.0 145.7 L 760.8 144.0 L 756.0 140.1 L 754.4 138.0 L 751.8 132.0 L 750.0 129.7 L 744.0 127.3 L 742.9 126.0 L 744.1 120.0 L 744.0 119.8 L 738.1 114.0 L 739.0 108.0 L 739.4 102.0 L 740.3 96.0 L 738.2 90.0 L 738.7 84.0 L 738.7 78.0 L 739.7 72.0 L 738.0 68.6 L 737.2 66.0 L 738.0 64.0 L 739.5 60.0 L 739.6 54.0 L 738.0 48.6 L 737.8 48.0 L 738.0 47.6 L 739.9 42.0 L 740.6 36.0 L 741.8 30.0 L 740.6 24.0 L 738.0 18.7 L 737.6 18.0 L 738.0 17.2 L 742.4 12.0 L 738.0 8.0 L 736.4 6.0 L 738.0 0.5 L 738.2 0.0"/>
<path id="c7_9" d="M 792.0 238.6 L 787.9 240.0 L 792.0 242.4 L 793.8 240.0 L 792.0 238.6"/>
<path id="c7_11" d="M 324.0 467.4 L 323.0 468.0 L 318.0 473.2 L 317.4 474.0 L 318.0 475.1 L 320.6 480.0 L 320.2 486.0 L 324.0 488.7 L 330.0 487.2 L 335.5 492.0 L 336.0 492.3 L 336.2 492.0 L 337.8 486.0 L 336.0 484.2 L 333.2 480.0 L 330.0 477.3 L 325.0 474.0 L 325.2 468.0 L 324.0 467.4"/>
<path id="c7_13" d="M 306.0 488.7 L 303.6 492.0 L 301.3 498.0 L 306.0 501.7 L 309.5 498.0 L 311.7 492.0 L 306.0 488.7"/>
<path id="c8_0" d="M 349.7 0.0 L 348.0 1.7 L 343.5 6.0 L 342.3 12.0 L 342.0 12.3 L 337.5 18.0 L 336.0 20.0 L 331.4 24.0 L 330.0 27.0 L 328.4 30.0 L 324.0 35.9 L 323.9 36.0 L 318.0 40.8 L 316.5 42.0 L 312.0 48.0 L 312.0 48.0 L 306.0 51.9 L 303.2 54.0 L 300.0 56.4 L 296.2 60.0 L 294.0 61.9 L 289.0 66.0 L 288.0 66.7 L 282.0 68.8 L 276.0 71.0 L 274.9 72.0 L 270.0 75.6 L 264.0 76.2 L 259.8 78.0 L 258.0 79.7 L 252.0 81.5 L 246.0 83.8 L 245.6 84.0 L 240.0 87.5 L 235.1 90.0 L 234.0 90.6 L 230.6 96.0 L 228.0 99.2 L 225.2 102.0 L 223.5 108.0 L 222.0 110.6 L 219.3 114.0 L 216.0 117.1 L 214.0 120.0 L 216.0 126.0 L 214.2 132.0 L 211.1 138.0 L 210.5 144.0 L 210.0 145.5 L 208.7 150.0 L 208.5 156.0 L 207.6 162.0 L 207.2 168.0 L 206.0 174.0 L 204.8 180.0 L 205.0 186.0 L 204.0 189.3 L 203.2 192.0 L 202.0 198.0 L 201.0 204.0 L 200.3 210.0 L 200.0 216.0 L 198.0 220.5 L 197.4 222.0 L 196.6 228.0 L 195.4 234.0 L 194.6 240.0 L 192.0 245.8 L 191.9 246.0 L 190.8 252.0 L 190.3 258.0 L 188.3 264.0 L 186.0 267.3 L 184.4 270.0 L 182.7 276.0 L 180.4 282.0 L 180.0 282.5 L 175.1 288.0 L 174.0 289.8 L 171.1 294.0 L 169.4 300.0 L 168.0 301.7 L 164.2 306.0 L 162.0 308.2 L 158.6 312.0 L 156.0 314.6 L 152.3 318.0 L 150.0 321.5 L 148.0 324.0 L 144.2 330.0 L 144.0 330.4 L 138.0 333.8 L 136.7 336.0 L 133.1 342.0 L 132.0 343.5 L 129.4 348.0 L 127.2 354.0 L 126.0 355.8 L 122.2 360.0 L 120.0 366.0 L 118.7 372.0 L 117.1 378.0 L 114.0 382.5 L 113.4 384.0 L 114.0 389.5 L 114.1 390.0 L 114.0 390.4 L 112.9 396.0 L 112.9 402.0 L 113.4 408.0 L 111.1 414.0 L 114.0 418.7 L 114.8 420.0 L 114.0 425.1 L 113.8 426.0 L 114.0 426.5 L 118.2 432.0 L 118.0 438.0 L 120.0 439.6 L 120.9 444.0 L 122.4 450.0 L 124.3 456.0 L 126.0 458.9 L 127.0 462.0 L 127.7 468.0 L 126.0 473.0 L 125.5 474.0 L 126.0 474.6 L 128.5 480.0 L 126.8 486.0 L 127.2 492.0 L 127.7 498.0 L 126.0 501.8 L 123.0 504.0 L 120.0 506.5 L 116.5 510.0 L 120.0 515.0 L 120.4 516.0 L 120.0 516.3 L 114.0 520.3 L 108.0 519.3 L 102.0 520.5 L 96.0 520.3 L 91.6 522.0 L 90.0 522.5 L 85.7 522.0 L 84.0 521.0 L 78.0 516.5 L 72.0 516.6 L 70.8 516.0 L 66.0 512.0 L 64.4 510.0 L 60.0 506.5 L 54.0 504.8 L 48.0 504.2 L 47.7 504.0 L 42.0 500.3 L 36.0 498.3 L 35.2 498.0 L 30.0 496.0 L 24.0 495.0 L 18.0 495.5 L 12.0 495.5 L 6.0 495.6 L 0.0 495.7"/>
<path id="c8_1" d="M 660.0 34.0 L 655.2 36.0 L 654.0 36.6 L 648.0 39.8 L 644.3 42.0 L 642.0 46.9 L 641.3 48.0 L 636.0 51.1 L 633.3 54.0 L 630.0 57.5 L 628.4 60.0 L 630.0 65.9 L 630.0 66.0 L 624.0 71.0 L 623.6 72.0 L 624.0 73.0 L 626.0 78.0 L 624.0 81.9 L 622.6 84.0 L 622.7 90.0 L 624.0 92.8 L 626.7 96.0 L 626.8 102.0 L 629.9 108.0 L 630.0 109.3 L 630.7 114.0 L 633.8 120.0 L 636.0 122.4 L 641.3 126.0 L 642.0 126.8 L 648.0 129.3 L 654.0 130.7 L 658.9 132.0 L 660.0 132.2 L 666.0 132.9 L 672.0 132.2 L 672.6 132.0 L 678.0 129.6 L 684.0 129.7 L 688.8 126.0 L 690.0 124.0 L 696.0 123.4 L 698.2 120.0 L 699.3 114.0 L 702.0 112.0 L 704.8 108.0 L 705.4 102.0 L 707.8 96.0 L 708.0 95.7 L 710.1 90.0 L 710.4 84.0 L 712.0 78.0 L 710.5 72.0 L 710.4 66.0 L 710.9 60.0 L 708.9 54.0 L 708.0 52.7 L 705.5 48.0 L 703.3 42.0 L 702.0 41.1 L 696.0 37.7 L 692.4 36.0 L 690.0 31.8 L 684.0 33.3 L 678.0 32.8 L 672.0 35.1 L 666.0 30.9 L 660.0 34.0"/>
<path id="c8_3" d="M 804.0 355.0 L 802.1 360.0 L 802.0 366.0 L 801.2 372.0 L 799.7 378.0 L 800.0 384.0 L 798.4 390.0 L 798.0 391.6 L 796.9 396.0 L 796.1 402.0 L 795.3 408.0 L 794.5 414.0 L 793.8 420.0 L 792.0 425.8 L 791.9 426.0 L 789.7 432.0 L 788.5 438.0 L 787.7 444.0 L 786.1 450.0 L 780.0 456.0 L 780.0 456.0 L 777.2 462.0 L 774.0 466.8 L 773.5 468.0 L 769.9 474.0 L 768.2 480.0 L 766.8 480.0 L 762.0 479.2 L 761.4 480.0 L 759.9 486.0 L 756.0 488.4 L 755.1 492.0 L 752.0 498.0 L 750.0 503.0 L 749.7 504.0 L 744.9 510.0 L 744.0 513.1 L 743.4 516.0 L 740.4 522.0 L 738.0 527.3 L 737.7 528.0 L 738.0 530.6 L 738.5 534.0 L 738.2 540.0 L 738.0 541.0 L 735.9 546.0 L 738.0 550.7 L 738.4 552.0 L 738.0 555.5 L 737.7 558.0 L 735.5 564.0 L 734.4 570.0 L 734.3 576.0 L 733.5 582.0 L 734.9 588.0 L 732.7 594.0 L 733.0 600.0 L 733.1 606.0 L 732.8 612.0 L 732.0 614.7 L 730.2 618.0 L 730.9 624.0 L 728.9 630.0 L 727.4 636.0 L 726.0 638.2 L 723.9 642.0 L 722.4 648.0 L 720.0 651.0 L 718.2 654.0 L 716.0 660.0 L 714.0 661.9 L 711.2 666.0 L 708.0 669.2 L 704.4 672.0 L 702.0 673.9 L 696.0 676.5 L 693.8 678.0 L 690.0 681.1 L 684.0 684.0 L 678.0 685.7 L 672.0 686.2 L 666.0 686.6 L 660.0 689.4 L 654.0 687.6 L 648.0 689.0 L 642.0 688.1 L 636.0 689.4 L 630.0 688.6 L 624.0 686.7 L 618.0 687.2 L 612.0 686.3 L 606.2 684.0 L 600.0 683.3 L 594.0 682.4 L 588.0 683.5 L 586.2 684.0 L 582.0 685.2 L 576.0 685.5 L 570.0 685.7 L 565.5 690.0 L 564.0 691.3 L 558.0 692.9 L 552.0 694.5 L 549.6 696.0 L 547.0 702.0 L 546.0 702.5 L 540.0 704.2 L 538.0 708.0 L 534.0 712.0 L 532.1 714.0 L 528.0 718.7 L 526.9 720.0 L 526.2 726.0 L 522.0 729.3 L 519.7 732.0 L 516.0 736.2 L 514.6 738.0 L 510.0 743.0 L 509.1 744.0 L 504.0 749.9 L 503.9 750.0 L 500.0 756.0 L 498.0 757.5 L 494.2 762.0 L 492.0 765.6 L 486.0 765.7 L 483.0 768.0 L 480.0 771.0 L 474.0 772.9 L 471.1 774.0 L 468.0 777.3 L 462.0 779.2 L 459.4 780.0 L 456.0 781.3 L 450.0 785.0 L 448.8 786.0 L 444.0 788.0 L 438.0 789.2 L 432.0 791.5 L 430.4 792.0 L 426.0 794.7 L 420.0 797.9 L 419.7 798.0 L 414.0 801.0 L 410.5 804.0 L 408.0 806.0 L 403.7 810.0 L 402.0 811.4 L 396.0 815.1 L 395.1 816.0 L 391.4 822.0 L 390.0 824.6 L 386.9 828.0 L 384.0 832.9 L 383.5 834.0 L 381.0 840.0 L 379.2 846.0 L 378.0 849.3 L 377.0 852.0 L 374.8 858.0 L 373.6 864.0 L 373.0 870.0 L 373.0 876.0 L 372.3 882.0 L 372.0 883.5 L 371.1 888.0 L 369.8 894.0 L 371.8 900.0 L 369.5 906.0 L 372.0 911.9 L 372.0 912.0 L 372.0 917.2 L 372.0 918.0 L 371.0 924.0 L 372.0 927.6 L 372.7 930.0 L 374.1 936.0 L 373.9 942.0 L 374.9 948.0 L 374.9 954.0 L 373.9 960.0 L 377.2 966.0 L 375.5 972.0 L 376.2 978.0 L 374.2 984.0 L 374.8 990.0 L 374.2 996.0 L 372.3 1002.0 L 372.0 1002.8 L 369.5 1008.0 L 368.5 1014.0 L 366.0 1020.0 L 366.0 1020.0 L 361.9 1026.0 L 360.0 1028.2 L 356.7 1032.0 L 354.8 1038.0 L 354.0 1039.1 L 348.0 1044.0 L 344.1 1050.0 L 342.0 1051.4 L 338.2 1056.0 L 336.0 1059.7 L 334.0 1062.0 L 330.0 1067.3 L 329.6 1068.0 L 325.2 1074.0 L 324.0 1076.9 L 323.0 1080.0 L 320.1 1086.0 L 318.0 1090.3 L 316.3 1092.0 L 313.7 1098.0 L 312.0 1101.6 L 310.7 1104.0 L 309.9 1110.0 L 307.6 1116.0 L 306.0 1119.8 L 304.9 1122.0 L 305.7 1128.0 L 302.9 1134.0"/>
<path id="c8_7" d="M 210.0 563.8 L 208.8 564.0 L 204.0 565.2 L 198.0 564.8 L 192.0 569.3 L 191.5 570.0 L 186.0 574.0 L 182.3 576.0 L 180.0 578.5 L 178.6 582.0 L 174.0 587.9 L 173.9 588.0 L 172.1 594.0 L 171.7 600.0 L 169.5 606.0 L 168.0 609.2 L 167.3 612.0 L 168.0 613.9 L 170.1 618.0 L 169.1 624.0 L 168.0 629.7 L 168.0 630.0 L 168.0 630.2 L 169.9 636.0 L 174.0 641.3 L 174.5 642.0 L 175.7 648.0 L 180.0 653.5 L 180.7 654.0 L 186.0 657.6 L 188.1 660.0 L 191.7 666.0 L 192.0 666.4 L 198.0 666.7 L 203.3 666.0 L 204.0 665.9 L 204.2 666.0 L 210.0 668.5 L 215.9 666.0 L 215.9 666.0 L 216.0 666.0 L 222.0 668.9 L 228.0 668.4 L 231.6 666.0 L 234.0 663.8 L 240.0 663.8 L 243.3 660.0 L 246.0 657.4 L 252.0 654.6 L 252.4 654.0 L 252.0 648.1 L 252.0 648.0 L 255.1 642.0 L 258.0 637.8 L 259.7 636.0 L 259.4 630.0 L 258.0 626.6 L 257.3 624.0 L 258.0 623.1 L 260.8 618.0 L 260.8 612.0 L 258.4 606.0 L 258.0 600.3 L 258.0 600.0 L 259.9 594.0 L 260.5 588.0 L 258.0 585.5 L 255.8 582.0 L 254.7 576.0 L 252.8 570.0 L 252.0 568.8 L 247.5 570.0 L 246.0 570.3 L 245.6 570.0 L 245.3 564.0 L 240.0 561.2 L 235.7 564.0 L 234.0 564.8 L 230.8 564.0 L 228.0 563.4 L 222.0 563.0 L 216.0 561.8 L 210.0 563.8"/>
<path id="c8_12" d="M 804.0 740.4 L 801.0 744.0 L 798.0 746.7 L 792.7 750.0 L 792.0 750.4 L 788.3 756.0 L 786.0 760.3 L 784.2 762.0 L 786.0 765.6 L 787.5 768.0 L 787.3 774.0 L 788.9 780.0 L 789.3 786.0 L 792.0 787.1 L 798.0 789.8 L 801.5 786.0 L 804.0 783.7"/>
<path id="c8_13" d="M 780.0 767.7 L 779.9 768.0 L 780.9 768.0 L 780.0 768.3 L 779.9 768.0"/>
<path id="c9_0" d="M 322.0 0.0 L 320.1 6.0 L 318.0 8.6 L 312.0 12.0 L 312.0 12.0 L 311.9 18.0 L 306.0 21.9 L 303.9 24.0 L 300.8 30.0 L 300.0 31.5 L 294.0 31.8 L 288.0 35.7 L 287.5 36.0 L 282.1 42.0 L 281.3 42.0 L 276.0 41.3 L 275.2 42.0 L 271.0 48.0 L 270.0 48.3 L 269.2 48.0 L 264.0 45.8 L 258.0 47.3 L 252.0 48.0 L 246.0 46.8 L 244.4 48.0 L 240.0 49.8 L 234.0 48.8 L 230.3 48.0 L 228.0 46.5 L 222.0 47.0 L 216.0 45.2 L 210.0 44.9 L 205.5 48.0 L 204.0 49.3 L 198.8 48.0 L 198.0 47.6 L 192.0 46.2 L 190.1 48.0 L 188.5 54.0 L 186.0 54.7 L 183.3 60.0 L 180.8 66.0 L 182.4 72.0 L 180.0 74.2 L 175.4 78.0 L 177.8 84.0 L 180.0 87.9 L 181.3 90.0 L 180.2 96.0 L 185.7 102.0 L 183.7 108.0 L 185.0 114.0 L 186.0 117.0 L 187.3 120.0 L 189.2 126.0 L 189.1 132.0 L 192.0 137.5 L 192.2 138.0 L 193.1 144.0 L 192.4 150.0 L 193.5 156.0 L 192.0 159.6 L 191.1 162.0 L 192.0 168.0 L 192.0 168.0 L 192.8 174.0 L 192.0 176.5 L 190.7 180.0 L 191.8 186.0 L 190.8 192.0 L 189.8 198.0 L 188.8 204.0 L 186.6 210.0 L 187.0 216.0 L 186.0 218.6 L 184.9 222.0 L 183.2 228.0 L 182.5 234.0 L 181.2 240.0 L 180.0 242.8 L 178.3 246.0 L 176.0 252.0 L 174.0 255.5 L 172.5 258.0 L 169.0 264.0 L 168.0 266.1 L 166.5 270.0 L 162.3 276.0 L 162.0 276.4 L 158.6 282.0 L 156.0 285.9 L 154.7 288.0 L 150.0 293.3 L 149.1 294.0 L 145.8 300.0 L 144.0 301.2 L 138.1 306.0 L 133.1 312.0 L 132.0 313.2 L 128.0 318.0 L 126.0 321.2 L 124.5 324.0 L 120.5 330.0 L 120.0 330.7 L 114.3 336.0 L 114.0 336.5 L 111.8 342.0 L 108.0 347.4 L 107.6 348.0 L 105.8 354.0 L 102.7 360.0 L 102.0 361.4 L 99.8 366.0 L 96.3 372.0 L 96.0 373.4 L 94.8 378.0 L 93.0 384.0 L 92.0 390.0 L 90.1 396.0 L 90.0 397.3 L 89.5 402.0 L 87.1 408.0 L 84.9 414.0 L 84.1 420.0 L 80.7 426.0 L 83.1 432.0 L 81.9 438.0 L 78.9 444.0 L 78.0 445.8 L 72.0 450.0 L 72.3 456.0 L 72.0 456.4 L 66.0 459.5 L 62.7 462.0 L 60.0 464.3 L 56.5 468.0 L 54.0 469.8 L 50.6 468.0 L 48.0 467.0 L 46.8 468.0 L 42.0 471.3 L 36.0 472.2 L 30.0 473.0 L 27.1 474.0 L 24.0 474.9 L 18.0 476.0 L 12.0 475.8 L 6.0 477.2 L 1.1 480.0 L 0.0 480.7"/>
<path id="c9_4" d="M 804.0 485.8 L 803.8 486.0 L 799.9 492.0 L 798.0 495.4 L 796.6 498.0 L 793.9 504.0 L 792.0 506.7 L 788.3 510.0 L 786.0 513.2 L 783.8 516.0 L 780.0 518.7 L 777.4 522.0 L 775.7 528.0 L 774.0 532.2 L 770.2 534.0 L 768.0 536.7 L 767.3 540.0 L 766.3 546.0 L 762.0 551.8 L 761.9 552.0 L 760.1 558.0 L 760.1 564.0 L 758.4 570.0 L 756.2 576.0 L 757.0 582.0 L 756.0 584.4 L 754.7 588.0 L 754.3 594.0 L 751.7 600.0 L 752.5 606.0 L 751.0 612.0 L 750.0 614.8 L 748.7 618.0 L 748.4 624.0 L 748.5 630.0 L 748.4 636.0 L 746.6 642.0 L 746.3 648.0 L 745.5 654.0 L 744.0 659.6 L 743.9 660.0 L 741.0 666.0 L 742.3 672.0 L 738.0 675.9 L 736.7 678.0 L 733.6 684.0 L 732.0 688.6 L 730.1 690.0 L 726.0 691.0 L 722.3 696.0 L 720.0 699.7 L 714.0 700.6 L 708.6 702.0 L 708.0 702.1 L 707.4 702.0 L 702.0 701.0 L 696.1 702.0 L 690.0 703.7 L 684.0 705.8 L 678.0 706.1 L 673.3 708.0 L 672.0 708.3 L 670.4 708.0 L 666.0 707.3 L 661.0 708.0 L 660.0 708.2 L 658.8 708.0 L 654.0 707.5 L 651.2 708.0 L 648.0 709.2 L 642.0 709.8 L 636.0 711.0 L 630.0 709.8 L 624.0 709.9 L 618.0 711.4 L 612.0 709.9 L 606.0 712.0 L 600.0 712.5 L 594.0 713.8 L 593.2 714.0 L 588.0 715.2 L 582.0 717.3 L 578.0 720.0 L 576.0 721.4 L 571.0 726.0 L 570.0 726.4 L 564.0 729.7 L 558.0 731.9 L 557.9 732.0 L 552.0 737.7 L 551.6 738.0 L 552.0 740.8 L 552.4 744.0 L 552.0 744.8 L 546.0 747.8 L 543.4 750.0 L 542.5 756.0 L 540.0 759.8 L 538.3 762.0 L 534.0 766.3 L 532.5 768.0 L 529.6 774.0 L 528.0 776.1 L 524.5 780.0 L 522.0 782.3 L 516.4 786.0 L 516.0 786.2 L 510.0 789.3 L 504.0 788.6 L 500.8 792.0 L 498.0 795.7 L 493.0 798.0 L 492.0 798.1 L 486.0 799.1 L 480.0 798.9 L 474.0 802.6 L 468.0 801.9 L 462.9 804.0 L 462.0 804.2 L 456.0 806.2 L 450.0 807.9 L 444.0 808.9 L 441.6 810.0 L 438.0 812.4 L 432.0 815.9 L 431.5 816.0 L 426.0 816.8 L 420.0 820.2 L 417.9 822.0 L 414.0 826.0 L 411.8 828.0 L 408.3 834.0 L 408.0 834.3 L 402.5 840.0 L 402.0 841.1 L 399.6 846.0 L 396.9 852.0 L 396.0 855.2 L 394.2 858.0 L 391.6 864.0 L 390.7 870.0 L 390.0 872.8 L 389.3 876.0 L 388.0 882.0 L 388.1 888.0 L 387.1 894.0 L 388.4 900.0 L 387.8 906.0 L 388.9 912.0 L 389.8 918.0 L 390.0 919.5 L 390.6 924.0 L 392.1 930.0 L 390.9 936.0 L 393.7 942.0 L 394.6 948.0 L 394.7 954.0 L 396.0 958.4 L 396.5 960.0 L 397.1 966.0 L 396.5 972.0 L 396.1 978.0 L 396.0 978.4 L 395.5 984.0 L 394.4 990.0 L 393.7 996.0 L 392.6 1002.0 L 392.1 1008.0 L 390.0 1012.1 L 389.0 1014.0 L 387.1 1020.0 L 385.1 1026.0 L 384.0 1027.7 L 382.0 1032.0 L 379.9 1038.0 L 378.0 1041.4 L 375.1 1044.0 L 372.0 1049.4 L 371.7 1050.0 L 366.0 1054.9 L 365.1 1056.0 L 361.4 1062.0 L 360.0 1063.2 L 356.5 1068.0 L 354.0 1071.4 L 351.1 1074.0 L 348.0 1078.5 L 347.3 1080.0 L 342.0 1085.9 L 341.9 1086.0 L 338.5 1092.0 L 337.0 1098.0 L 336.0 1099.0 L 331.8 1104.0 L 330.0 1109.0 L 329.5 1110.0 L 327.1 1116.0 L 324.6 1122.0 L 324.0 1123.5 L 322.9 1128.0 L 320.8 1134.0"/>
<path id="c9_6" d="M 804.0 703.8 L 798.0 704.6 L 792.0 705.1 L 786.0 703.2 L 780.0 704.7 L 774.0 705.8 L 770.4 708.0 L 768.0 712.0 L 762.0 712.6 L 760.8 714.0 L 756.0 717.3 L 753.1 720.0 L 752.4 726.0 L 753.1 732.0 L 750.8 738.0 L 750.1 744.0 L 750.6 750.0 L 750.0 752.7 L 748.5 756.0 L 746.9 762.0 L 750.0 767.5 L 750.3 768.0 L 751.5 774.0 L 751.8 780.0 L 751.3 786.0 L 754.5 792.0 L 755.8 798.0 L 756.0 798.3 L 762.0 803.9 L 762.1 804.0 L 763.6 810.0 L 768.0 812.5 L 771.1 816.0 L 774.0 818.8 L 777.2 822.0 L 780.0 825.9 L 786.0 826.2 L 788.1 828.0 L 792.0 833.1 L 794.8 834.0 L 798.0 835.1 L 804.0 839.1"/>
<path id="c10_0" d="M 32.5 0.0 L 36.0 2.7 L 42.0 2.8 L 48.0 4.4 L 52.4 6.0 L 54.0 6.8 L 60.0 7.8 L 66.0 9.0 L 72.0 9.3 L 78.0 8.4 L 84.0 8.8 L 90.0 6.9 L 96.0 8.3 L 102.0 9.5 L 106.3 6.0 L 108.0 4.6 L 114.0 5.9 L 114.4 6.0 L 120.0 7.2 L 123.1 6.0 L 126.0 4.5 L 129.9 0.0"/>
<path id="c10_1" d="M 129.1 6.0 L 132.0 3.7 L 134.5 6.0 L 132.0 10.0 L 129.1 6.0"/>
<path id="c10_3" d="M 197.0 0.0 L 192.0 4.2 L 186.0 3.1 L 180.4 6.0 L 180.0 6.1 L 179.7 6.0 L 174.0 3.6 L 168.0 4.1 L 162.0 5.2 L 160.4 6.0 L 156.0 8.2 L 150.0 10.2 L 144.0 10.5 L 141.3 12.0 L 138.0 16.5 L 137.3 18.0 L 138.0 24.0 L 138.0 24.1 L 139.6 30.0 L 142.1 36.0 L 141.6 42.0 L 141.7 48.0 L 141.9 54.0 L 144.0 58.5 L 144.8 60.0 L 145.3 66.0 L 144.0 71.0 L 143.7 72.0 L 143.6 78.0 L 144.0 78.8 L 148.3 84.0 L 148.1 90.0 L 150.0 94.4 L 150.6 96.0 L 151.3 102.0 L 156.0 106.4 L 156.8 108.0 L 158.6 114.0 L 159.0 120.0 L 162.0 122.9 L 163.8 126.0 L 165.9 132.0 L 168.0 135.5 L 169.6 138.0 L 170.5 144.0 L 173.5 150.0 L 172.9 156.0 L 174.0 158.7 L 175.7 162.0 L 174.8 168.0 L 176.8 174.0 L 176.7 180.0 L 176.6 186.0 L 176.3 192.0 L 175.7 198.0 L 174.8 204.0 L 174.9 210.0 L 174.0 213.7 L 173.4 216.0 L 171.1 222.0 L 170.3 228.0 L 168.6 234.0 L 168.0 234.8 L 164.9 240.0 L 162.0 245.9 L 162.0 246.0 L 160.1 252.0 L 156.0 258.0 L 156.0 258.0 L 151.6 264.0 L 150.0 266.1 L 147.6 270.0 L 144.0 275.1 L 143.0 276.0 L 138.0 281.5 L 137.6 282.0 L 133.6 288.0 L 132.0 290.0 L 128.1 294.0 L 126.0 295.4 L 122.8 300.0 L 120.0 303.3 L 117.8 306.0 L 114.0 310.9 L 112.6 312.0 L 108.0 316.8 L 107.4 318.0 L 103.1 324.0 L 102.0 327.2 L 101.2 330.0 L 96.1 336.0 L 96.0 336.5 L 94.2 342.0 L 91.2 348.0 L 90.0 350.6 L 87.8 354.0 L 86.0 360.0 L 84.0 365.6 L 83.8 366.0 L 80.4 372.0 L 78.4 378.0 L 78.0 379.1 L 75.7 384.0 L 73.8 390.0 L 72.0 393.6 L 70.9 396.0 L 68.6 402.0 L 68.0 408.0 L 66.0 410.7 L 62.9 414.0 L 60.2 420.0 L 56.2 426.0 L 54.0 430.3 L 53.2 432.0 L 48.0 436.8 L 46.2 438.0 L 42.0 442.2 L 40.5 444.0 L 36.0 448.2 L 31.2 450.0 L 30.0 450.4 L 24.0 454.2 L 21.3 456.0 L 18.0 458.4 L 12.0 458.9 L 6.0 460.9 L 4.3 462.0 L 0.0 464.5"/>
<path id="c10_4" d="M 211.3 0.0 L 216.0 3.3 L 222.0 0.3 L 222.8 0.0"/>
<path id="c10_6" d="M 249.5 0.0 L 252.0 1.3 L 258.0 0.1 L 258.0 0.1"/>
<path id="c10_8" d="M 804.0 534.4 L 799.2 540.0 L 798.0 543.6 L 797.0 546.0 L 792.0 550.0 L 790.4 552.0 L 786.0 557.9 L 785.9 558.0 L 786.0 559.7 L 786.3 564.0 L 786.0 564.5 L 782.0 570.0 L 780.6 576.0 L 780.0 577.4 L 778.0 582.0 L 775.0 588.0 L 774.0 590.8 L 773.3 594.0 L 773.0 600.0 L 770.9 606.0 L 769.3 612.0 L 769.6 618.0 L 771.0 624.0 L 769.7 630.0 L 768.9 636.0 L 772.6 642.0 L 771.2 648.0 L 773.8 654.0 L 774.0 654.3 L 778.9 660.0 L 780.0 661.8 L 782.6 666.0 L 786.0 668.7 L 792.0 670.6 L 794.6 672.0 L 798.0 674.0 L 804.0 673.5"/>
<path id="c10_9" d="M 804.0 884.9 L 802.8 882.0 L 800.0 876.0 L 798.0 873.9 L 793.3 870.0 L 792.0 868.5 L 788.6 864.0 L 786.0 859.5 L 781.6 858.0 L 780.0 857.5 L 774.0 852.9 L 769.9 852.0 L 768.0 851.5 L 763.2 846.0 L 762.0 844.6 L 756.0 840.5 L 755.0 840.0 L 750.0 837.3 L 747.6 834.0 L 745.7 828.0 L 744.0 826.9 L 740.2 822.0 L 738.0 816.4 L 737.7 816.0 L 734.9 810.0 L 733.1 804.0 L 732.0 799.6 L 731.6 798.0 L 728.3 792.0 L 730.0 786.0 L 727.9 780.0 L 726.0 775.4 L 725.6 774.0 L 726.0 771.9 L 726.8 768.0 L 726.0 766.7 L 722.6 762.0 L 723.6 756.0 L 720.0 750.8 L 719.3 750.0 L 716.9 744.0 L 714.0 741.1 L 712.6 738.0 L 708.0 734.1 L 705.3 732.0 L 702.0 729.3 L 696.0 729.4 L 690.0 728.8 L 684.0 727.3 L 678.5 726.0 L 678.0 725.9 L 676.9 726.0 L 672.0 726.8 L 666.0 726.1 L 660.0 729.0 L 654.0 727.6 L 648.0 729.3 L 642.0 730.7 L 637.9 732.0 L 636.0 732.6 L 633.1 732.0 L 630.0 731.4 L 628.1 732.0 L 624.0 734.7 L 618.5 738.0 L 618.0 738.2 L 612.0 738.3 L 606.0 741.3 L 602.0 744.0 L 600.0 745.9 L 594.0 749.8 L 593.7 750.0 L 588.0 753.0 L 585.1 756.0 L 582.0 759.3 L 579.7 762.0 L 576.0 765.6 L 574.2 768.0 L 571.4 774.0 L 570.0 777.6 L 567.2 780.0 L 564.0 781.7 L 560.4 786.0 L 559.2 792.0 L 558.0 793.9 L 552.0 796.5 L 550.3 798.0 L 546.0 802.5 L 543.4 804.0 L 540.0 807.1 L 537.3 810.0 L 534.0 813.5 L 529.4 816.0 L 528.0 817.2 L 522.0 821.8 L 521.4 822.0 L 516.0 823.4 L 510.0 824.9 L 504.0 825.9 L 498.0 825.2 L 493.2 828.0 L 492.0 828.7 L 490.2 828.0 L 486.0 826.8 L 483.3 828.0 L 480.0 829.7 L 475.8 828.0 L 474.0 827.2 L 469.6 828.0 L 468.0 828.6 L 462.0 830.2 L 456.0 832.0 L 450.0 832.9 L 448.1 834.0 L 444.0 838.1 L 438.0 839.3 L 436.5 840.0 L 432.0 842.6 L 429.9 846.0 L 426.0 850.7 L 420.0 851.3 L 419.6 852.0 L 420.0 858.0 L 415.3 864.0 L 414.0 866.4 L 411.4 870.0 L 411.0 876.0 L 409.3 882.0 L 408.0 885.3 L 407.0 888.0 L 407.4 894.0 L 408.0 895.3 L 409.7 900.0 L 409.1 906.0 L 408.0 911.3 L 407.9 912.0 L 408.0 912.6 L 409.3 918.0 L 410.7 924.0 L 410.2 930.0 L 410.5 936.0 L 411.8 942.0 L 413.0 948.0 L 413.1 954.0 L 414.0 959.0 L 414.1 960.0 L 414.0 966.0 L 412.1 972.0 L 413.6 978.0 L 413.8 984.0 L 412.2 990.0 L 411.8 996.0 L 410.0 1002.0 L 410.1 1008.0 L 409.0 1014.0 L 408.0 1017.6 L 406.8 1020.0 L 405.3 1026.0 L 402.1 1032.0 L 402.4 1038.0 L 402.0 1039.4 L 399.9 1044.0 L 396.0 1049.3 L 395.5 1050.0 L 392.4 1056.0 L 390.0 1060.1 L 388.1 1062.0 L 385.6 1068.0 L 384.0 1070.7 L 378.9 1074.0 L 378.0 1074.8 L 374.2 1080.0 L 372.0 1081.7 L 368.3 1086.0 L 366.0 1091.8 L 365.9 1092.0 L 360.2 1098.0 L 356.5 1104.0 L 354.0 1107.8 L 352.3 1110.0 L 350.2 1116.0 L 348.0 1118.2 L 345.7 1122.0 L 345.4 1128.0 L 342.0 1132.2 L 341.2 1134.0"/>
<path id="c11_0" d="M 0.0 1.2 L 4.4 6.0 L 6.0 8.9 L 8.7 12.0 L 12.0 14.5 L 15.6 18.0 L 18.0 20.2 L 24.0 23.5 L 26.7 24.0 L 30.0 24.6 L 36.0 25.9 L 42.0 25.2 L 48.0 27.8 L 54.0 27.2 L 60.0 29.0 L 62.7 30.0 L 66.0 30.8 L 72.0 31.4 L 78.0 30.2 L 84.0 33.9 L 90.0 35.8 L 90.8 36.0 L 96.0 37.6 L 102.0 40.6 L 103.0 42.0 L 108.0 47.8 L 108.2 48.0 L 112.3 54.0 L 114.0 56.1 L 115.8 60.0 L 116.2 66.0 L 119.2 72.0 L 120.0 75.2 L 121.1 78.0 L 123.0 84.0 L 123.8 90.0 L 126.0 94.2 L 126.9 96.0 L 127.6 102.0 L 132.0 107.4 L 132.5 108.0 L 132.0 110.5 L 131.4 114.0 L 132.0 115.0 L 135.4 120.0 L 138.0 124.4 L 139.3 126.0 L 142.1 132.0 L 144.0 137.9 L 144.0 138.0 L 146.0 144.0 L 150.0 149.9 L 150.0 150.0 L 154.1 156.0 L 156.0 160.6 L 156.3 162.0 L 156.0 166.5 L 155.8 168.0 L 156.0 169.1 L 157.0 174.0 L 159.4 180.0 L 158.6 186.0 L 158.8 192.0 L 160.1 198.0 L 160.6 204.0 L 157.9 210.0 L 157.7 216.0 L 156.0 222.0 L 152.9 228.0 L 150.5 234.0 L 150.0 236.5 L 149.2 240.0 L 144.7 246.0 L 144.0 247.1 L 141.2 252.0 L 138.0 257.9 L 137.9 258.0 L 132.0 264.0 L 127.6 270.0 L 126.0 271.8 L 122.2 276.0 L 120.0 278.3 L 115.9 282.0 L 114.0 284.6 L 112.1 288.0 L 108.0 292.8 L 107.0 294.0 L 102.0 300.0 L 97.6 306.0 L 96.0 307.9 L 92.7 312.0 L 90.4 318.0 L 90.0 318.4 L 85.8 324.0 L 84.0 326.8 L 82.0 330.0 L 80.0 336.0 L 78.0 341.2 L 77.6 342.0 L 73.7 348.0 L 72.0 351.4 L 71.0 354.0 L 69.3 360.0 L 66.2 366.0 L 66.0 366.7 L 65.0 372.0 L 63.0 378.0 L 60.7 384.0 L 60.0 385.6 L 57.6 390.0 L 54.0 396.0 L 54.0 396.0 L 51.3 402.0 L 48.0 406.5 L 46.9 408.0 L 44.8 414.0 L 42.0 417.7 L 39.1 420.0 L 36.0 422.9 L 34.0 426.0 L 30.0 430.0 L 27.8 432.0 L 24.0 435.7 L 18.0 437.6 L 17.4 438.0 L 12.0 441.8 L 8.8 444.0 L 6.0 445.6 L 0.0 446.2"/>
<path id="c11_4" d="M 804.0 583.3 L 800.7 588.0 L 798.0 593.8 L 797.9 594.0 L 798.0 595.4 L 798.6 600.0 L 798.0 601.0 L 794.8 606.0 L 795.1 612.0 L 797.0 618.0 L 797.6 624.0 L 797.3 630.0 L 798.0 630.6 L 804.0 631.9"/>
<path id="c11_5" d="M 804.0 943.9 L 800.1 942.0 L 800.0 936.0 L 798.0 933.8 L 795.8 930.0 L 792.1 924.0 L 792.7 918.0 L 792.0 916.6 L 788.4 912.0 L 786.0 909.5 L 782.8 906.0 L 781.6 900.0 L 780.0 897.3 L 774.0 895.3 L 772.5 894.0 L 769.2 888.0 L 768.0 887.0 L 762.0 882.2 L 756.0 882.3 L 755.5 882.0 L 752.9 876.0 L 750.0 875.5 L 744.0 871.9 L 739.1 870.0 L 738.0 869.4 L 732.0 865.5 L 729.7 864.0 L 726.8 858.0 L 726.0 856.9 L 720.9 852.0 L 720.0 849.7 L 718.4 846.0 L 716.8 840.0 L 714.5 834.0 L 714.1 828.0 L 714.0 827.6 L 711.9 822.0 L 711.3 816.0 L 710.8 810.0 L 708.5 804.0 L 709.2 798.0 L 708.3 792.0 L 708.0 791.0 L 706.0 786.0 L 703.7 780.0 L 702.0 777.0 L 700.7 774.0 L 699.9 768.0 L 696.0 764.4 L 693.8 762.0 L 690.0 756.7 L 688.5 756.0 L 684.0 753.0 L 678.0 752.0 L 674.9 750.0 L 672.0 748.7 L 666.0 748.1 L 662.6 750.0 L 660.0 751.0 L 655.9 750.0 L 654.0 749.5 L 650.6 750.0 L 648.0 750.5 L 642.0 753.0 L 636.0 755.3 L 630.0 755.2 L 628.1 756.0 L 624.0 760.0 L 618.0 761.3 L 617.4 762.0 L 612.0 767.3 L 611.2 768.0 L 606.0 773.4 L 605.4 774.0 L 600.3 780.0 L 600.0 780.3 L 594.0 782.9 L 591.9 786.0 L 590.5 792.0 L 588.0 794.4 L 583.4 798.0 L 582.0 802.5 L 581.5 804.0 L 576.0 807.7 L 573.1 810.0 L 570.0 813.3 L 568.1 816.0 L 565.1 822.0 L 564.0 822.8 L 558.0 825.9 L 555.6 828.0 L 552.7 834.0 L 552.0 834.7 L 546.0 836.6 L 540.0 839.6 L 539.5 840.0 L 534.0 843.6 L 528.7 846.0 L 528.0 846.5 L 522.0 846.6 L 516.0 849.7 L 511.7 852.0 L 510.0 853.1 L 504.5 852.0 L 504.0 851.9 L 503.8 852.0 L 498.0 854.5 L 492.0 855.9 L 486.0 857.6 L 480.0 857.2 L 474.4 858.0 L 474.0 858.1 L 468.0 863.4 L 462.0 862.3 L 458.9 864.0 L 456.0 866.0 L 451.9 870.0 L 450.0 872.4 L 444.5 876.0 L 444.0 876.8 L 440.8 882.0 L 438.0 885.6 L 436.6 888.0 L 436.2 894.0 L 432.5 900.0 L 433.3 906.0 L 432.0 911.3 L 431.8 912.0 L 432.0 917.3 L 432.0 918.0 L 432.4 924.0 L 432.0 925.4 L 430.9 930.0 L 429.9 936.0 L 429.8 942.0 L 431.2 948.0 L 429.2 954.0 L 429.0 960.0 L 429.1 966.0 L 429.4 972.0 L 428.3 978.0 L 427.7 984.0 L 428.1 990.0 L 427.2 996.0 L 426.0 1000.2 L 425.6 1002.0 L 425.9 1008.0 L 426.0 1009.2 L 426.3 1014.0 L 426.0 1015.4 L 425.1 1020.0 L 424.5 1026.0 L 423.9 1032.0 L 422.7 1038.0 L 420.0 1043.4 L 419.7 1044.0 L 420.0 1045.1 L 421.6 1050.0 L 421.4 1056.0 L 420.0 1059.7 L 418.9 1062.0 L 416.5 1068.0 L 414.0 1073.2 L 413.7 1074.0 L 413.0 1080.0 L 413.2 1086.0 L 414.0 1086.9 L 420.0 1091.9 L 420.1 1092.0 L 421.7 1098.0 L 422.8 1104.0 L 426.0 1109.6 L 427.1 1104.0 L 430.8 1098.0 L 432.0 1096.8 L 436.7 1098.0 L 438.0 1098.5 L 444.0 1098.1 L 450.0 1095.6 L 454.7 1098.0 L 456.0 1099.0 L 457.1 1098.0 L 462.0 1094.8 L 467.2 1098.0 L 468.0 1098.4 L 474.0 1098.3 L 480.0 1098.7 L 486.0 1099.8 L 492.0 1101.0 L 494.5 1104.0 L 498.0 1107.1 L 500.6 1110.0 L 504.0 1114.8 L 504.9 1116.0 L 508.0 1122.0 L 510.0 1125.1 L 512.2 1128.0 L 514.3 1134.0"/>
<path id="c11_6" d="M 402.0 1102.1 L 400.3 1104.0 L 402.0 1106.1 L 405.1 1104.0 L 402.0 1102.1"/>
<path id="c11_8" d="M 414.0 1104.3 L 412.3 1110.0 L 408.0 1114.4 L 407.1 1116.0 L 402.0 1121.8 L 396.0 1121.3 L 390.0 1119.4 L 387.8 1122.0 L 390.0 1124.4 L 396.0 1123.7 L 402.0 1123.7 L 402.2 1122.0 L 408.0 1116.9 L 414.0 1118.5 L 417.1 1116.0 L 417.3 1110.0 L 414.0 1104.3"/>
<path id="c12_0" d="M 0.0 47.2 L 6.0 45.1 L 12.0 46.6 L 16.9 48.0 L 18.0 48.4 L 19.3 48.0 L 24.0 46.5 L 30.0 47.5 L 31.4 48.0 L 36.0 48.9 L 38.7 48.0 L 42.0 47.0 L 44.7 48.0 L 48.0 49.7 L 54.0 49.9 L 60.0 51.3 L 66.0 51.2 L 72.0 53.6 L 72.4 54.0 L 78.0 57.1 L 82.0 60.0 L 84.0 62.3 L 90.0 64.4 L 91.0 66.0 L 94.4 72.0 L 96.0 74.0 L 98.3 78.0 L 100.5 84.0 L 101.7 90.0 L 102.0 91.3 L 103.5 96.0 L 106.7 102.0 L 108.0 107.1 L 108.1 108.0 L 110.7 114.0 L 113.2 120.0 L 114.0 121.3 L 115.6 126.0 L 117.2 132.0 L 120.0 138.0 L 120.0 138.0 L 121.0 144.0 L 123.0 150.0 L 126.0 153.2 L 128.2 156.0 L 131.6 162.0 L 132.0 163.0 L 133.8 168.0 L 136.4 174.0 L 135.6 180.0 L 138.0 185.9 L 138.0 186.0 L 138.0 187.0 L 137.8 192.0 L 138.0 196.1 L 138.2 198.0 L 140.0 204.0 L 138.0 208.9 L 137.6 210.0 L 138.0 213.2 L 138.3 216.0 L 138.0 216.9 L 136.0 222.0 L 133.4 228.0 L 132.0 232.0 L 130.8 234.0 L 126.0 239.7 L 125.7 240.0 L 121.7 246.0 L 120.0 249.7 L 117.8 252.0 L 114.4 258.0 L 114.0 258.5 L 108.0 262.0 L 106.5 264.0 L 102.0 268.1 L 100.9 270.0 L 96.0 275.3 L 94.9 276.0 L 90.0 281.9 L 90.0 282.0 L 84.8 288.0 L 84.0 288.9 L 81.5 294.0 L 78.0 299.0 L 77.1 300.0 L 73.6 306.0 L 72.9 312.0 L 72.0 314.1 L 70.7 318.0 L 68.3 324.0 L 66.0 327.0 L 64.4 330.0 L 62.4 336.0 L 60.9 342.0 L 60.0 343.4 L 57.9 348.0 L 56.2 354.0 L 54.6 360.0 L 54.0 361.3 L 50.7 366.0 L 49.8 372.0 L 48.0 376.2 L 47.2 378.0 L 42.8 384.0 L 42.0 385.3 L 39.9 390.0 L 37.5 396.0 L 36.0 398.9 L 34.4 402.0 L 30.0 406.0 L 28.1 408.0 L 24.4 414.0 L 24.0 414.4 L 18.0 419.2 L 16.4 420.0 L 12.0 423.5 L 9.2 426.0 L 6.0 427.4 L 0.0 429.9"/>
<path id="c12_1" d="M 804.0 1000.8 L 801.9 1002.0 L 800.0 1008.0 L 798.0 1012.4 L 792.0 1013.8 L 791.3 1014.0 L 786.0 1018.6 L 785.1 1020.0 L 782.8 1026.0 L 780.0 1030.6 L 778.9 1032.0 L 774.0 1036.9 L 771.5 1038.0 L 769.1 1044.0 L 768.0 1044.8 L 764.5 1044.0 L 762.0 1043.2 L 761.2 1044.0 L 757.5 1050.0 L 756.0 1050.7 L 750.0 1052.6 L 744.0 1054.2 L 738.0 1052.3 L 732.8 1056.0 L 732.0 1056.5 L 728.0 1056.0 L 726.0 1054.9 L 721.9 1050.0 L 720.1 1044.0 L 720.0 1043.9 L 717.3 1044.0 L 714.0 1044.1 L 713.9 1044.0 L 711.9 1038.0 L 714.2 1032.0 L 714.0 1031.8 L 710.1 1026.0 L 709.2 1020.0 L 708.0 1018.7 L 705.3 1014.0 L 704.0 1008.0 L 702.0 1005.2 L 699.5 1002.0 L 702.0 998.1 L 703.3 996.0 L 702.0 990.5 L 701.7 990.0 L 696.0 985.4 L 690.0 985.0 L 686.3 984.0 L 684.0 979.2 L 683.3 978.0 L 678.0 976.2 L 675.0 978.0 L 672.0 979.4 L 670.6 978.0 L 666.0 974.4 L 662.2 972.0 L 660.0 970.2 L 654.0 971.2 L 649.4 966.0 L 648.0 964.2 L 642.0 963.4 L 637.8 960.0 L 636.0 958.5 L 633.2 954.0 L 630.0 948.9 L 629.4 948.0 L 630.0 946.2 L 632.5 942.0 L 631.3 936.0 L 630.0 933.8 L 628.0 930.0 L 628.2 924.0 L 630.0 920.7 L 633.5 918.0 L 631.2 912.0 L 633.3 906.0 L 636.0 903.8 L 638.4 900.0 L 640.5 894.0 L 642.0 890.7 L 648.0 889.4 L 648.8 888.0 L 649.0 882.0 L 652.7 876.0 L 654.0 874.6 L 660.0 872.6 L 665.8 870.0 L 665.3 864.0 L 666.0 863.1 L 672.0 859.6 L 674.2 858.0 L 674.1 852.0 L 677.3 846.0 L 677.3 840.0 L 678.0 839.5 L 681.9 834.0 L 680.1 828.0 L 683.8 822.0 L 684.0 820.2 L 684.2 816.0 L 684.0 815.3 L 682.1 810.0 L 681.4 804.0 L 683.8 798.0 L 680.4 792.0 L 678.0 787.7 L 672.0 786.0 L 672.0 786.0 L 666.0 781.3 L 664.8 780.0 L 660.0 776.9 L 654.0 776.5 L 648.0 778.9 L 642.0 777.8 L 638.8 780.0 L 636.0 782.2 L 630.9 786.0 L 630.0 786.5 L 624.0 789.4 L 621.8 792.0 L 618.0 794.9 L 613.9 798.0 L 612.0 799.7 L 608.3 804.0 L 606.2 810.0 L 602.3 816.0 L 600.0 818.7 L 594.0 821.7 L 593.8 822.0 L 593.9 828.0 L 588.5 834.0 L 588.0 834.5 L 583.0 840.0 L 582.0 841.2 L 576.0 843.1 L 574.4 846.0 L 570.0 849.1 L 566.5 852.0 L 564.0 854.2 L 558.0 854.9 L 554.4 858.0 L 552.0 860.3 L 546.0 863.3 L 544.5 864.0 L 540.0 865.5 L 534.0 867.7 L 528.0 868.8 L 524.6 870.0 L 522.0 871.1 L 516.0 871.5 L 510.0 875.6 L 509.3 876.0 L 504.0 877.8 L 498.0 880.1 L 492.0 881.3 L 490.9 882.0 L 486.0 884.6 L 481.5 888.0 L 480.0 889.1 L 474.4 894.0 L 474.0 894.4 L 468.0 899.9 L 467.9 900.0 L 462.0 905.9 L 461.9 906.0 L 458.7 912.0 L 456.0 915.4 L 453.7 918.0 L 452.5 924.0 L 451.2 930.0 L 450.9 936.0 L 450.0 937.7 L 447.3 942.0 L 446.6 948.0 L 446.9 954.0 L 446.1 960.0 L 445.1 966.0 L 444.4 972.0 L 444.0 977.4 L 443.9 978.0 L 443.6 984.0 L 444.0 987.0 L 444.4 990.0 L 444.4 996.0 L 444.0 996.9 L 442.2 1002.0 L 441.7 1008.0 L 444.0 1013.5 L 444.2 1014.0 L 444.0 1015.1 L 443.0 1020.0 L 444.0 1022.5 L 445.7 1026.0 L 446.2 1032.0 L 448.0 1038.0 L 448.6 1044.0 L 450.0 1047.5 L 452.4 1050.0 L 455.8 1056.0 L 456.0 1056.2 L 462.0 1059.2 L 468.0 1060.5 L 470.1 1062.0 L 474.0 1065.3 L 480.0 1064.5 L 486.0 1067.5 L 487.7 1068.0 L 492.0 1069.5 L 498.0 1072.6 L 500.9 1074.0 L 504.0 1076.1 L 510.0 1078.4 L 512.4 1080.0 L 516.0 1084.7 L 519.6 1086.0 L 522.0 1086.8 L 525.6 1092.0 L 528.0 1094.4 L 531.3 1098.0 L 532.0 1104.0 L 534.0 1107.9 L 534.9 1110.0 L 537.8 1116.0 L 540.0 1121.7 L 540.1 1122.0 L 545.8 1128.0 L 546.0 1128.3 L 548.0 1134.0"/>
<path id="c13_0" d="M 0.0 408.6 L 2.0 408.0 L 6.0 406.5 L 11.7 402.0 L 12.0 401.7 L 16.9 396.0 L 18.0 395.1 L 23.2 390.0 L 24.0 388.9 L 26.3 384.0 L 28.7 378.0 L 30.0 375.9 L 31.6 372.0 L 34.1 366.0 L 35.5 360.0 L 36.0 359.0 L 38.2 354.0 L 41.5 348.0 L 42.0 346.1 L 42.5 342.0 L 43.4 336.0 L 44.3 330.0 L 45.8 324.0 L 45.2 318.0 L 47.3 312.0 L 48.0 310.7 L 51.1 306.0 L 48.8 300.0 L 51.1 294.0 L 52.9 288.0 L 50.3 282.0 L 51.7 276.0 L 54.0 273.4 L 57.0 270.0 L 55.2 264.0 L 60.0 259.1 L 60.5 258.0 L 64.4 252.0 L 66.0 247.5 L 72.2 246.0 L 72.0 244.8 L 71.1 240.0 L 70.5 234.0 L 72.0 232.6 L 73.1 234.0 L 78.0 237.9 L 82.8 234.0 L 84.0 232.4 L 90.0 228.9 L 90.6 228.0 L 90.0 226.7 L 86.4 222.0 L 90.0 220.6 L 96.0 219.2 L 100.1 216.0 L 99.2 210.0 L 98.1 204.0 L 100.9 198.0 L 100.1 192.0 L 99.3 186.0 L 102.0 181.5 L 102.8 180.0 L 102.0 178.5 L 98.0 174.0 L 100.1 168.0 L 97.5 162.0 L 97.3 156.0 L 96.0 154.1 L 93.6 150.0 L 93.4 144.0 L 92.7 138.0 L 91.7 132.0 L 90.0 128.9 L 88.1 126.0 L 90.0 120.7 L 90.3 120.0 L 90.0 119.6 L 86.7 114.0 L 84.8 108.0 L 84.5 102.0 L 84.0 101.1 L 80.3 96.0 L 78.0 91.1 L 77.2 90.0 L 72.0 85.8 L 69.6 84.0 L 66.0 78.7 L 65.6 78.0 L 60.0 74.2 L 54.0 73.1 L 48.0 74.0 L 42.0 73.8 L 38.2 72.0 L 36.0 70.7 L 30.0 70.6 L 27.3 72.0 L 24.0 74.2 L 18.0 72.9 L 13.5 78.0 L 12.0 78.8 L 8.0 78.0 L 6.0 77.4 L 4.5 78.0 L 0.0 81.3"/>
<path id="c13_2" d="M 804.0 1052.2 L 798.0 1054.3 L 796.6 1056.0 L 794.2 1062.0 L 792.0 1063.0 L 786.6 1068.0 L 786.0 1068.4 L 780.0 1069.9 L 774.9 1074.0 L 774.0 1076.1 L 768.0 1078.6 L 761.9 1080.0 L 761.9 1080.0 L 756.0 1082.5 L 752.6 1086.0 L 750.0 1087.2 L 744.0 1086.1 L 738.0 1087.1 L 732.0 1088.0 L 726.0 1088.8 L 720.0 1086.3 L 714.0 1086.2 L 708.0 1086.4 L 706.9 1086.0 L 702.0 1083.7 L 697.5 1080.0 L 696.0 1075.8 L 694.8 1074.0 L 690.0 1071.8 L 687.5 1068.0 L 684.0 1063.5 L 682.6 1062.0 L 681.4 1056.0 L 680.1 1050.0 L 678.0 1046.5 L 676.7 1044.0 L 673.9 1038.0 L 672.1 1032.0 L 672.0 1031.8 L 666.0 1027.6 L 664.5 1026.0 L 660.8 1020.0 L 660.0 1019.7 L 654.0 1015.3 L 649.3 1014.0 L 648.0 1013.5 L 643.3 1008.0 L 642.0 1006.6 L 636.0 1004.5 L 630.0 1004.7 L 627.5 1002.0 L 624.1 996.0 L 624.0 995.9 L 618.0 993.4 L 612.0 990.4 L 610.9 990.0 L 607.4 984.0 L 606.0 981.3 L 602.7 978.0 L 603.6 972.0 L 602.0 966.0 L 600.0 960.7 L 599.8 960.0 L 598.0 954.0 L 598.2 948.0 L 596.8 942.0 L 594.5 936.0 L 595.2 930.0 L 596.8 924.0 L 594.9 918.0 L 595.8 912.0 L 594.0 907.9 L 592.8 906.0 L 594.0 903.9 L 595.7 900.0 L 594.0 896.6 L 592.7 894.0 L 588.0 889.2 L 586.4 888.0 L 582.0 882.6 L 579.0 882.0 L 576.0 881.8 L 575.1 882.0 L 570.0 883.9 L 565.0 882.0 L 564.0 881.8 L 562.2 882.0 L 558.0 882.7 L 552.0 885.8 L 546.0 887.3 L 545.0 888.0 L 540.0 889.6 L 534.0 890.3 L 528.0 890.7 L 522.0 893.3 L 516.0 894.0 L 516.0 894.0 L 510.0 897.2 L 504.0 899.5 L 503.3 900.0 L 498.0 904.8 L 495.5 906.0 L 492.0 908.5 L 488.3 912.0 L 486.0 913.2 L 482.0 918.0 L 480.0 920.5 L 476.0 924.0 L 474.3 930.0 L 474.0 930.5 L 470.7 936.0 L 468.0 941.6 L 467.8 942.0 L 465.2 948.0 L 462.7 954.0 L 463.3 960.0 L 462.0 963.2 L 460.9 966.0 L 461.2 972.0 L 459.5 978.0 L 459.7 984.0 L 460.5 990.0 L 461.4 996.0 L 461.8 1002.0 L 462.0 1002.7 L 463.0 1008.0 L 462.0 1013.4 L 461.9 1014.0 L 462.0 1014.4 L 464.5 1020.0 L 468.0 1024.3 L 469.2 1026.0 L 473.4 1032.0 L 474.0 1032.4 L 480.0 1037.5 L 480.7 1038.0 L 486.0 1040.7 L 492.0 1042.0 L 494.6 1044.0 L 498.0 1045.4 L 504.0 1047.8 L 510.0 1048.2 L 514.2 1050.0 L 516.0 1051.0 L 522.0 1052.1 L 525.1 1056.0 L 528.0 1058.2 L 534.0 1061.7 L 534.5 1062.0 L 540.0 1065.9 L 542.6 1068.0 L 546.0 1072.0 L 547.8 1074.0 L 552.0 1079.7 L 552.2 1080.0 L 552.8 1086.0 L 555.7 1092.0 L 558.0 1096.7 L 558.8 1098.0 L 561.6 1104.0 L 564.0 1109.7 L 564.2 1110.0 L 568.0 1116.0 L 570.0 1121.1 L 571.0 1122.0 L 576.0 1126.8 L 576.6 1128.0 L 579.5 1134.0"/>
<path id="c14_0" d="M 0.0 213.4 L 0.8 210.0 L 5.3 204.0 L 4.6 198.0 L 6.0 196.6 L 12.0 195.8 L 15.2 192.0 L 18.0 187.1 L 20.2 186.0 L 24.0 184.7 L 28.1 180.0 L 30.0 178.5 L 34.8 174.0 L 36.0 172.6 L 42.0 172.9 L 44.8 168.0 L 48.0 164.7 L 52.1 162.0 L 54.0 159.7 L 55.8 156.0 L 57.1 150.0 L 56.4 144.0 L 59.8 138.0 L 58.5 132.0 L 57.4 126.0 L 56.9 120.0 L 54.0 117.1 L 51.6 114.0 L 48.0 110.0 L 42.0 109.9 L 36.0 109.1 L 34.4 108.0 L 30.0 105.8 L 24.0 107.0 L 22.6 108.0 L 21.2 114.0 L 18.0 115.0 L 12.0 118.0 L 9.6 120.0 L 6.0 124.5 L 5.3 126.0 L 4.8 132.0 L 0.0 137.1"/>
<path id="c14_1" d="M 0.0 218.8 L 0.6 222.0 L 0.5 228.0 L 0.0 229.7"/>
<path id="c14_3" d="M 0.0 281.8 L 0.1 282.0 L 6.0 285.8 L 6.6 288.0 L 6.0 291.7 L 5.4 294.0 L 6.0 299.3 L 6.2 300.0 L 12.0 304.0 L 13.6 306.0 L 16.5 312.0 L 16.3 318.0 L 15.1 324.0 L 16.4 330.0 L 16.5 336.0 L 17.0 342.0 L 15.9 348.0 L 17.0 354.0 L 14.3 360.0 L 12.0 365.6 L 11.7 366.0 L 6.0 372.0 L 2.6 378.0 L 0.7 384.0 L 0.0 384.6"/>
<path id="c14_5" d="M 528.0 914.8 L 523.7 918.0 L 522.0 919.3 L 516.0 920.5 L 513.1 924.0 L 510.0 925.8 L 504.0 927.0 L 498.1 930.0 L 494.4 936.0 L 492.0 940.3 L 491.2 942.0 L 487.9 948.0 L 486.0 950.0 L 483.8 954.0 L 482.5 960.0 L 481.6 966.0 L 481.1 972.0 L 481.4 978.0 L 480.0 981.5 L 479.1 984.0 L 480.0 986.8 L 481.8 990.0 L 482.4 996.0 L 486.0 1000.8 L 486.8 1002.0 L 489.8 1008.0 L 492.0 1009.8 L 497.2 1014.0 L 498.0 1014.9 L 504.0 1018.4 L 506.4 1020.0 L 510.0 1021.0 L 516.0 1023.4 L 522.0 1025.6 L 526.7 1026.0 L 528.0 1026.1 L 531.3 1026.0 L 534.0 1025.8 L 540.0 1020.8 L 546.0 1024.3 L 551.1 1020.0 L 552.0 1019.3 L 554.8 1020.0 L 558.0 1022.6 L 559.3 1020.0 L 558.1 1014.0 L 564.0 1011.5 L 570.0 1009.6 L 571.3 1008.0 L 570.0 1002.0 L 571.8 996.0 L 570.0 992.4 L 569.2 990.0 L 570.0 986.9 L 570.8 984.0 L 571.8 978.0 L 570.0 974.7 L 568.2 972.0 L 569.2 966.0 L 569.8 960.0 L 569.9 954.0 L 569.3 948.0 L 566.6 942.0 L 566.7 936.0 L 565.7 930.0 L 564.0 926.6 L 562.6 924.0 L 558.0 921.8 L 552.0 918.6 L 550.4 918.0 L 546.0 916.6 L 540.0 916.5 L 534.0 914.2 L 528.0 914.8"/>
<path id="c14_7" d="M 802.7 1134.0 L 801.6 1128.0 L 801.9 1122.0 L 798.4 1116.0 L 798.0 1115.7 L 794.0 1110.0 L 792.0 1107.8 L 789.4 1110.0 L 786.0 1112.5 L 780.0 1110.7 L 778.9 1110.0 L 774.0 1108.2 L 768.0 1109.7 L 767.0 1110.0 L 762.0 1110.8 L 756.0 1111.8 L 750.0 1111.6 L 744.0 1112.2 L 738.0 1113.9 L 732.0 1114.4 L 726.0 1115.2 L 720.0 1115.7 L 715.8 1116.0 L 714.0 1116.1 L 708.0 1117.0 L 702.0 1116.5 L 698.7 1116.0 L 696.0 1115.6 L 691.9 1116.0 L 690.0 1116.3 L 688.4 1116.0 L 684.0 1115.1 L 682.8 1116.0 L 678.0 1118.5 L 672.0 1118.9 L 666.0 1122.1 L 660.0 1123.0 L 657.4 1122.0 L 660.0 1119.7 L 664.6 1116.0 L 660.0 1111.8 L 658.3 1110.0 L 660.0 1107.3 L 662.2 1104.0 L 660.0 1102.9 L 654.0 1098.2 L 658.0 1104.0 L 654.0 1107.0 L 652.3 1104.0 L 654.1 1098.0 L 654.0 1097.0 L 653.4 1092.0 L 650.9 1086.0 L 651.4 1080.0 L 650.7 1074.0 L 648.4 1068.0 L 648.0 1067.5 L 642.7 1062.0 L 642.3 1056.0 L 642.0 1055.6 L 636.0 1053.9 L 630.0 1051.4 L 626.2 1050.0 L 624.0 1047.1 L 621.4 1044.0 L 618.0 1042.8 L 612.7 1038.0 L 612.0 1037.1 L 610.9 1038.0 L 606.0 1041.9 L 602.2 1044.0 L 600.0 1045.3 L 594.0 1045.9 L 591.5 1044.0 L 590.6 1038.0 L 588.0 1037.1 L 584.4 1038.0 L 582.0 1044.0 L 585.0 1050.0 L 586.1 1056.0 L 586.9 1062.0 L 582.0 1065.1 L 580.1 1068.0 L 582.0 1069.3 L 586.3 1074.0 L 588.0 1077.4 L 589.4 1080.0 L 589.7 1086.0 L 592.1 1092.0 L 594.0 1096.4 L 594.8 1098.0 L 599.0 1104.0 L 600.0 1108.5 L 606.0 1108.6 L 608.2 1110.0 L 610.3 1116.0 L 612.0 1117.5 L 618.0 1120.2 L 624.0 1120.6 L 630.0 1121.5 L 630.6 1122.0 L 636.0 1127.9 L 642.0 1124.6 L 645.4 1122.0 L 648.0 1117.4 L 651.1 1122.0 L 651.9 1128.0 L 648.0 1132.9 L 646.8 1134.0"/>
<path id="c14_8" d="M 609.8 1044.0 L 612.0 1040.5 L 614.5 1044.0 L 612.0 1044.7 L 609.8 1044.0"/>
<path id="c14_9" d="M 586.1 1068.0 L 588.0 1064.1 L 588.7 1068.0 L 588.0 1069.5 L 586.1 1068.0"/>
</defs>
<g fill="none" stroke="currentColor" stroke-linecap="round" stroke-linejoin="round">
<use href="#c1_0" stroke-width="0.9"/>
<use href="#c1_1" stroke-width="0.9"/>
<use href="#c2_0" stroke-width="0.9"/>
<use href="#c2_4" stroke-width="0.9"/>
<use href="#c2_8" stroke-width="0.9"/>
<use href="#c3_0" stroke-width="1.6"/>
<use href="#c3_6" stroke-width="1.6"/>
<use href="#c3_7" stroke-width="1.6"/>
<use href="#c3_8" stroke-width="1.6"/>
<use href="#c3_9" stroke-width="1.6"/>
<use href="#c3_10" stroke-width="1.6"/>
<use href="#c3_12" stroke-width="1.6"/>
<use href="#c3_15" stroke-width="1.6"/>
<use href="#c4_0" stroke-width="0.9"/>
<use href="#c4_7" stroke-width="0.9"/>
<use href="#c4_9" stroke-width="0.9"/>
<use href="#c5_0" stroke-width="0.9"/>
<use href="#c5_10" stroke-width="0.9"/>
<use href="#c5_11" stroke-width="0.9"/>
<use href="#c6_0" stroke-width="1.6"/>
<use href="#c6_1" stroke-width="1.6"/>
<use href="#c6_10" stroke-width="1.6"/>
<use href="#c7_0" stroke-width="0.9"/>
<use href="#c7_1" stroke-width="0.9"/>
<use href="#c7_2" stroke-width="0.9"/>
<use href="#c7_5" stroke-width="0.9"/>
<use href="#c7_9" stroke-width="0.9"/>
<use href="#c7_11" stroke-width="0.9"/>
<use href="#c7_13" stroke-width="0.9"/>
<use href="#c8_0" stroke-width="0.9"/>
<use href="#c8_1" stroke-width="0.9"/>
<use href="#c8_3" stroke-width="0.9"/>
<use href="#c8_7" stroke-width="0.9"/>
<use href="#c8_12" stroke-width="0.9"/>
<use href="#c8_13" stroke-width="0.9"/>
<use href="#c9_0" stroke-width="1.6"/>
<use href="#c9_4" stroke-width="1.6"/>
<use href="#c9_6" stroke-width="1.6"/>
<use href="#c10_0" stroke-width="0.9"/>
<use href="#c10_1" stroke-width="0.9"/>
<use href="#c10_3" stroke-width="0.9"/>
<use href="#c10_4" stroke-width="0.9"/>
<use href="#c10_6" stroke-width="0.9"/>
<use href="#c10_8" stroke-width="0.9"/>
<use href="#c10_9" stroke-width="0.9"/>
<use href="#c11_0" stroke-width="0.9"/>
<use href="#c11_4" stroke-width="0.9"/>
<use href="#c11_5" stroke-width="0.9"/>
<use href="#c11_6" stroke-width="0.9"/>
<use href="#c11_8" stroke-width="0.9"/>
<use href="#c12_0" stroke-width="1.6"/>
<use href="#c12_1" stroke-width="1.6"/>
<use href="#c13_0" stroke-width="0.9"/>
<use href="#c13_2" stroke-width="0.9"/>
<use href="#c14_0" stroke-width="0.9"/>
<use href="#c14_1" stroke-width="0.9"/>
<use href="#c14_3" stroke-width="0.9"/>
<use href="#c14_5" stroke-width="0.9"/>
<use href="#c14_7" stroke-width="0.9"/>
<use href="#c14_8" stroke-width="0.9"/>
<use href="#c14_9" stroke-width="0.9"/>
</g>
<g stroke="currentColor" stroke-width="0.9" opacity="0.55">
<line x1="133" y1="240" x2="147" y2="240"/>
<line x1="140" y1="233" x2="140" y2="247"/>
<line x1="553" y1="410" x2="567" y2="410"/>
<line x1="560" y1="403" x2="560" y2="417"/>
<line x1="283" y1="760" x2="297" y2="760"/>
<line x1="290" y1="753" x2="290" y2="767"/>
<line x1="653" y1="880" x2="667" y2="880"/>
<line x1="660" y1="873" x2="660" y2="887"/>
<line x1="423" y1="580" x2="437" y2="580"/>
<line x1="430" y1="573" x2="430" y2="587"/>
</g>
<g fill="currentColor" font-family="'IBM Plex Mono', monospace" font-size="10" letter-spacing="0.3">
<text dy="3.5"><textPath href="#c3_0" startOffset="30%"><tspan>&#160;540&#160;</tspan></textPath></text>
<text dy="3.5"><textPath href="#c3_0" startOffset="75%"><tspan>&#160;540&#160;</tspan></textPath></text>
<text dy="3.5"><textPath href="#c3_6" startOffset="30%"><tspan>&#160;540&#160;</tspan></textPath></text>
<text dy="3.5"><textPath href="#c3_6" startOffset="75%"><tspan>&#160;540&#160;</tspan></textPath></text>
<text dy="3.5"><textPath href="#c3_12" startOffset="30%"><tspan>&#160;540&#160;</tspan></textPath></text>
<text dy="3.5"><textPath href="#c3_12" startOffset="75%"><tspan>&#160;540&#160;</tspan></textPath></text>
<text dy="3.5"><textPath href="#c3_15" startOffset="30%"><tspan>&#160;540&#160;</tspan></textPath></text>
<text dy="3.5"><textPath href="#c6_0" startOffset="30%"><tspan>&#160;600&#160;</tspan></textPath></text>
<text dy="3.5"><textPath href="#c6_0" startOffset="75%"><tspan>&#160;600&#160;</tspan></textPath></text>
<text dy="3.5"><textPath href="#c6_1" startOffset="30%"><tspan>&#160;600&#160;</tspan></textPath></text>
<text dy="3.5"><textPath href="#c6_10" startOffset="30%"><tspan>&#160;600&#160;</tspan></textPath></text>
<text dy="3.5"><textPath href="#c6_10" startOffset="75%"><tspan>&#160;600&#160;</tspan></textPath></text>
<text dy="3.5"><textPath href="#c9_0" startOffset="30%"><tspan>&#160;660&#160;</tspan></textPath></text>
<text dy="3.5"><textPath href="#c9_0" startOffset="75%"><tspan>&#160;660&#160;</tspan></textPath></text>
<text dy="3.5"><textPath href="#c9_4" startOffset="30%"><tspan>&#160;660&#160;</tspan></textPath></text>
<text dy="3.5"><textPath href="#c9_4" startOffset="75%"><tspan>&#160;660&#160;</tspan></textPath></text>
<text dy="3.5"><textPath href="#c9_6" startOffset="30%"><tspan>&#160;660&#160;</tspan></textPath></text>
<text dy="3.5"><textPath href="#c12_0" startOffset="30%"><tspan>&#160;720&#160;</tspan></textPath></text>
<text dy="3.5"><textPath href="#c12_0" startOffset="75%"><tspan>&#160;720&#160;</tspan></textPath></text>
<text dy="3.5"><textPath href="#c12_1" startOffset="30%"><tspan>&#160;720&#160;</tspan></textPath></text>
<text dy="3.5"><textPath href="#c12_1" startOffset="75%"><tspan>&#160;720&#160;</tspan></textPath></text>
</g>
</svg>